<?xml version="1.0" encoding="utf-8"?>
<!-- Generator: Adobe Illustrator 27.3.1, SVG Export Plug-In . SVG Version: 6.00 Build 0)  -->
<svg version="1.1" id="Layer_1" xmlns:v="https://vecta.io/nano"
	 xmlns="http://www.w3.org/2000/svg" xmlns:xlink="http://www.w3.org/1999/xlink" x="0px" y="0px" viewBox="0 0 768 238.1"
	 style="enable-background:new 0 0 768 238.1;" xml:space="preserve">
<style type="text/css">
	.st0{fill:#FFFFFF;}
</style>
<path class="st0" d="M768,238.3l0.4-86.8c0,0,0.3-49.4-47-52.6C678.7,96,662.6,135,662.6,135c-28.4-76.1-126.8-31.8-113.3,20.2
	c-15-20.4-33.4-28.5-63.8-20.5c-21.8,5.8-34,17.5-45,35.1v-13.4c-7.9-83.4-87.2-53.5-87.2-53.5s-5.4-56.4-51.7-65.2
	c-42-8-65.2,22.7-65.2,22.7c-11.4-80.4-117-58.2-115-4.6C111,32.6,94.8,20.7,63.4,22c-28.4,1.2-44,14.9-63,37.5v178.6H432L768,238.3
	z M42.7,81.6c-4.2-1.3-5.8,6.3-5.8,6.3c-1.4-2.3-6-1.6-6.7-0.9s-6.2,2-4-4.3s-1.1-5.3-1.1-5.3c0.9-0.7,1.6-1.4,2.2-2.1
	c-1.5-1.4-2.7-2.6-3.2-3.4c-1.6-2.4-0.9-5.7,1.6-7.3c2.5-1.6,8.8-2.2,10.4,0.3c0.9,1.4,1.7,5.5,1.9,9.2
	C41.8,71.6,46.7,82.9,42.7,81.6z M48,86c-1.7,1.1-3.6,1.3-4.1,0.4c-0.6-0.9,0.3-2.5,2-3.6s3.5-1.3,4.1-0.4S49.7,84.9,48,86z
	 M49.3,69.5C47.9,70.4,44,67.4,45,64c0.5-1.6-0.5-3.2,0.9-4.1c1.4-0.8,3.2-0.5,4.1,0.9C50.9,62.2,50.7,68.6,49.3,69.5z M160.2,25.9
	c2-1.3,4.6-0.7,5.9,1.2c1.3,2,0.7,4.6-1.2,5.9c-1.9,1.3-4.6,0.7-5.9-1.2C157.7,29.9,158.2,27.1,160.2,25.9z M151.1,57.2
	c-0.7-4.3-8.1-2.3-8.1-2.3c1.4-2.1-1.3-5.9-2.2-6.3s-4.5-4.7,2.1-5.5c6.7-0.9,4.2-3.4,4.2-3.4c7.7,3.9,13-2.9,13-2.9s-2,7.3-4.4,8.9
	c-2.3,1.6-5,1.9-0.2,3.7C160,51.3,151.8,61.6,151.1,57.2z M158.2,62.5c1.7-1.1,3.5-1.3,4.1-0.4s-0.3,2.5-2,3.6
	c-1.8,1.2-3.5,1.3-4.1,0.4C155.6,65.2,156.5,63.6,158.2,62.5z M160.4,78.1c-1.7,1.2-3.5,1.3-4.1,0.4s0.3-2.5,2-3.6s3.5-1.3,4.1-0.4
	S162.1,77,160.4,78.1z M169.2,53.9c-2.4,0.4-4.5-0.7-4.8-2.5c-0.3-1.7,0-9.4,2.3-9.7c2.4-0.4,5.8,6.5,6.2,8.3
	C173.3,51.8,171.5,53.5,169.2,53.9z M182.1,35.9c-1.2,0.8-6.7,0.5-7.4-0.7c-0.8-1.2,2.5-5.5,3.7-6.3c1.2-0.7,2.8-0.4,3.6,0.8
	C182.8,30.9,183.3,35.1,182.1,35.9z M233,71c-0.8-1.2,2.5-5.5,3.7-6.3s2.8-0.4,3.6,0.8s1.3,5.4,0.1,6.2S233.8,72.3,233,71z
	 M243.7,92.4c-1.5,0.9-3.5,0.5-4.5-1s2-3,1-4.5c-2.1-3.3,7-3.7,8-2.1S245.3,91.4,243.7,92.4z M254.1,80.6c-1.9-2.9-1.1-6.8,1.8-8.6
	l0.2-0.2c-1.8-2.7-0.9-6.4,1.7-8.1c2.7-1.8,6.4-0.9,8.1,1.7c1.8,2.7,0.9,6.4-1.7,8.1l0.2,0.2c1.9,2.9,1.1,6.8-1.8,8.6
	C259.7,84.3,256,83.5,254.1,80.6z M266,108.6c-1.4,0.9-5.3-2.1-4.3-5.5c0.5-1.6-0.5-3.2,0.9-4.1s3.2-0.5,4.1,0.9
	C267.6,101.3,267.4,107.7,266,108.6z M276.2,95.4c-3.8,0.6-7.6-4-8.5-10.3c-0.8-6.2,1.7-11.7,5.7-12.2c3.9-0.5,3.2,4.2,4,10.4
	S280.1,95,276.2,95.4z M285.5,77.1c-2.9,1.9-7.2-5-9-7.8c-1.9-2.9-0.1-12.1,2.7-13.9c2.9-2.1,11.9,3.7,13.8,6.6
	C294.9,64.9,288.5,75.2,285.5,77.1z M341.1,105.7c-1.4-0.5-4.5-5-4-6.4s5.9-1.3,7.3-0.8s2.1,2,1.5,3.4
	C345.5,103.2,342.5,106.2,341.1,105.7z M348.8,122c-1.6,1.2-3.4,1.4-4.1,0.4c-0.6-0.9,0.3-2.5,2-3.6s3.5-1.3,4.1-0.4
	S350.5,120.9,348.8,122z M352.7,111.5c-0.4,1-2.2,1.2-4.1,0.6c-1.9-0.7-3.1-2.1-2.7-3.1s2.2-1.3,4.1-0.6
	C351.9,109.1,353.1,110.5,352.7,111.5z M382.9,128.2c-0.8-1.2,2.5-5.5,3.7-6.3s2.8-0.4,3.6,0.8c0.8,1.2,1.3,5.4,0.1,6.2
	C389.2,129.6,383.8,129.5,382.9,128.2z M393.1,163.8c-1.3,0.9-0.5-1.4-1.8-3.4s-4.1-2.8-2.8-3.7c1.4-0.9,3.6,0,4.8,1.9
	C394.6,160.6,394.5,162.9,393.1,163.8z M394.1,116.2c-0.8-1.2,2.5-5.5,3.7-6.3s2.8-0.4,3.6,0.8s1.3,5.4,0.1,6.2
	C400.3,117.7,394.8,117.4,394.1,116.2z M410.4,137c-0.4,6.2-5.4,11.1-11.2,10.7c-5.9-0.3-3.7-4.7-3.2-11.1
	c0.4-6.2-1.1-12.1,4.7-11.7S410.8,130.7,410.4,137z M481.9,184c-1.2,1.2-5.6-0.9-5.4-4.5c0.1-1.7-1.2-3,0-4.2c1.2-1.1,3-1.2,4.2,0
	C481.9,176.5,483,182.8,481.9,184z M580.9,123.7c-1.7-1.6-1.8-4.4-0.1-6c1.7-1.7,4.3-1.7,6-0.1c1.7,1.7,1.7,4.3,0.1,6
	C585.4,125.3,582.6,125.3,580.9,123.7z M585.6,157.8c-0.8-0.8-0.2-2.5,1.2-3.9s3.1-2,3.9-1.3c0.8,0.8,0.2,2.5-1.2,3.9
	C588,158.1,586.3,158.5,585.6,157.8z M592.2,168.6c-1.4,1.5-3.1,2-3.9,1.3s-0.2-2.5,1.2-3.9s3.1-2,3.9-1.3
	C594.2,165.4,593.7,167.2,592.2,168.6z M595.6,143.1c-2.3,0.9-4.5,0.3-5.2-1.4c-0.7-1.6-2-9.2,0.2-10c2.3-0.9,7.1,5.1,7.8,6.8
	C599.2,140.2,597.8,142.2,595.6,143.1z M604.4,122.7c-1,1-6.4,1.9-7.4,0.9s1.3-5.9,2.3-6.9c1-0.9,2.6-1,3.7,0
	C604,117.7,605.4,121.7,604.4,122.7z M669,145.2c-1,1-6.3,2-7.4,0.9c-1-1,1.3-5.9,2.3-6.9s2.6-1,3.7,0
	C668.6,140.2,670,144.2,669,145.2z M676.7,164.7c-1.3,1.2-3.3,1.2-4.6,0c-1.3-1.3,1.3-3.4,0-4.6c-2.8-2.8,6-5.1,7.4-3.8
	C680.7,157.7,678,163.4,676.7,164.7z M709.1,160.7c-3.6,1.4-8.3-2.3-10.5-8.2c-2.1-5.9-0.8-11.8,3-13.1c3.7-1.3,4,3.4,6.1,9.3
	C709.7,154.5,712.8,159.5,709.1,160.7z M718.3,124.5c-3,1.6-1.6,13.9-4.1,16.4c-2.4,2.5-8.1-3.3-10.5-5.7
	c-2.5-2.4-2.7-11.8-0.3-14.2C705.8,118.3,726,120.3,718.3,124.5z"/>
</svg>
