<?xml version="1.0" encoding="utf-8"?>
<!-- Generator: Adobe Illustrator 27.3.1, SVG Export Plug-In . SVG Version: 6.00 Build 0)  -->
<svg version="1.1" id="Layer_1" xmlns:v="https://vecta.io/nano"
	 xmlns="http://www.w3.org/2000/svg" xmlns:xlink="http://www.w3.org/1999/xlink" x="0px" y="0px" viewBox="0 0 992 240.4"
	 style="enable-background:new 0 0 992 240.4;" xml:space="preserve">
<style type="text/css">
	.st0{fill:#FFFFFF;}
</style>
<path class="st0" d="M992,100.1c-22.5,0-29.3,37.1-29.3,37.1c-28.4-76.1-126.8-31.8-113.3,20.2c-15-20.4-33.4-28.5-63.8-20.5
	c-7.1,1.9-13.2,4.4-18.5,7.5c-2.4-14.4-11.6-41.4-46.1-43.7c-42.7-2.9-58.8,36.1-58.8,36.1C633.8,60.7,535.4,105,548.9,157
	c-15-20.4-33.4-28.5-63.8-20.5c-21.8,5.8-34,17.5-45,35.1v-13.4c-7.9-83.4-87.2-53.5-87.2-53.5s-5.4-56.4-51.7-65.2
	c-42-8-65.2,22.7-65.2,22.7C224.6-18.2,119,4,121,57.6c-10.4-23-26.6-34.9-58-33.6C34.6,25.2,19,38.9,0,61.5v178.6h431.5l300.6,0.1
	l-0.1,0.2l24.9-0.2h10.6v-0.1L992,238V100.1z M42.3,83.6c-4.2-1.3-5.8,6.3-5.8,6.3c-1.4-2.3-6-1.6-6.7-0.9s-6.2,2-4-4.3
	s-1.1-5.3-1.1-5.3c0.9-0.7,1.6-1.4,2.2-2.1c-1.5-1.4-2.7-2.6-3.2-3.4c-1.6-2.4-0.9-5.7,1.6-7.3c2.5-1.6,8.8-2.2,10.4,0.3
	c0.9,1.4,1.7,5.5,1.9,9.2C41.4,73.6,46.3,84.9,42.3,83.6z M47.6,88c-1.7,1.1-3.6,1.3-4.1,0.4c-0.6-0.9,0.3-2.5,2-3.6
	s3.5-1.3,4.1-0.4C50.2,85.3,49.3,86.9,47.6,88z M48.9,71.5c-1.4,0.9-5.3-2.1-4.3-5.5c0.5-1.6-0.5-3.2,0.9-4.1
	c1.4-0.8,3.2-0.5,4.1,0.9C50.5,64.2,50.3,70.6,48.9,71.5z M159.8,27.9c2-1.3,4.6-0.7,5.9,1.2c1.3,2,0.7,4.6-1.2,5.9
	c-1.9,1.3-4.6,0.7-5.9-1.2C157.3,31.9,157.8,29.1,159.8,27.9z M150.7,59.2c-0.7-4.3-8.1-2.3-8.1-2.3c1.4-2.1-1.3-5.9-2.2-6.3
	s-4.5-4.7,2.1-5.5c6.7-0.9,4.2-3.4,4.2-3.4c7.7,3.9,13-2.9,13-2.9s-2,7.3-4.4,8.9c-2.3,1.6-5,1.9-0.2,3.7
	C159.6,53.3,151.4,63.6,150.7,59.2z M157.8,64.5c1.7-1.1,3.5-1.3,4.1-0.4s-0.3,2.5-2,3.6c-1.8,1.2-3.5,1.3-4.1,0.4
	S156.1,65.6,157.8,64.5z M160,80.1c-1.7,1.2-3.5,1.3-4.1,0.4s0.3-2.5,2-3.6s3.5-1.3,4.1-0.4S161.7,79,160,80.1z M168.8,55.9
	c-2.4,0.4-4.5-0.7-4.8-2.5c-0.3-1.7,0-9.4,2.3-9.7c2.4-0.4,5.8,6.5,6.2,8.3S171.1,55.5,168.8,55.9z M181.7,37.9
	c-1.2,0.8-6.7,0.5-7.4-0.7c-0.8-1.2,2.5-5.5,3.7-6.3c1.2-0.7,2.8-0.4,3.6,0.8C182.4,32.9,182.9,37.1,181.7,37.9z M232.6,73
	c-0.8-1.2,2.5-5.5,3.7-6.3s2.8-0.4,3.6,0.8s1.3,5.4,0.1,6.2S233.4,74.3,232.6,73z M243.3,94.4c-1.5,0.9-3.5,0.5-4.5-1s2-3,1-4.5
	c-2.1-3.3,7-3.7,8-2.1S244.9,93.4,243.3,94.4z M253.7,82.6c-1.9-2.9-1.1-6.8,1.8-8.6l0.2-0.2c-1.8-2.7-0.9-6.4,1.7-8.1
	c2.7-1.8,6.4-0.9,8.1,1.7c1.8,2.7,0.9,6.4-1.7,8.1l0.2,0.2c1.9,2.9,1.1,6.8-1.8,8.6C259.3,86.3,255.6,85.5,253.7,82.6z M265.6,110.6
	c-1.4,0.9-5.3-2.1-4.3-5.5c0.5-1.6-0.5-3.2,0.9-4.1s3.2-0.5,4.1,0.9C267.2,103.3,267,109.7,265.6,110.6z M275.8,97.4
	c-3.8,0.6-7.6-4-8.5-10.3c-0.8-6.2,1.7-11.7,5.7-12.2c3.9-0.5,3.2,4.2,4,10.4S279.7,97,275.8,97.4z M285.1,79.1
	c-2.9,1.9-7.2-5-9-7.8c-1.9-2.9-0.1-12.1,2.7-13.9c2.9-2.1,11.9,3.7,13.8,6.6C294.5,66.9,288.1,77.2,285.1,79.1z M340.7,107.7
	c-1.4-0.5-4.5-5-4-6.4s5.9-1.3,7.3-0.8s2.1,2,1.5,3.4C345.1,105.2,342.1,108.2,340.7,107.7z M348.4,124c-1.6,1.2-3.4,1.4-4.1,0.4
	c-0.6-0.9,0.3-2.5,2-3.6s3.5-1.3,4.1-0.4S350.1,122.9,348.4,124z M352.3,113.5c-0.4,1-2.2,1.2-4.1,0.6c-1.9-0.7-3.1-2.1-2.7-3.1
	s2.2-1.3,4.1-0.6C351.5,111.1,352.7,112.5,352.3,113.5z M382.5,130.2c-0.8-1.2,2.5-5.5,3.7-6.3s2.8-0.4,3.6,0.8
	c0.8,1.2,1.3,5.4,0.1,6.2C388.8,131.6,383.4,131.5,382.5,130.2z M392.7,165.8c-1.3,0.9-0.5-1.4-1.8-3.4s-4.1-2.8-2.8-3.7
	c1.4-0.9,3.6,0,4.8,1.9C394.2,162.6,394.1,164.9,392.7,165.8z M393.7,118.2c-0.8-1.2,2.5-5.5,3.7-6.3s2.8-0.4,3.6,0.8
	s1.3,5.4,0.1,6.2C399.9,119.7,394.4,119.4,393.7,118.2z M410,139c-0.4,6.2-5.4,11.1-11.2,10.7c-5.9-0.3-3.7-4.7-3.2-11.1
	c0.4-6.2-1.1-12.1,4.7-11.7S410.4,132.7,410,139z M481.4,186c-1.2,1.2-5.6-0.9-5.4-4.5c0.1-1.7-1.2-3,0-4.2c1.2-1.1,3-1.2,4.2,0
	C481.4,178.5,482.6,184.8,481.4,186z M580.5,125.6c-1.7-1.6-1.8-4.4-0.1-6c1.7-1.7,4.3-1.7,6-0.1c1.7,1.7,1.7,4.3,0.1,6
	C584.9,127.2,582.2,127.2,580.5,125.6z M585.1,159.7c-0.8-0.8-0.2-2.5,1.2-3.9s3.1-2,3.9-1.3c0.8,0.8,0.2,2.5-1.2,3.9
	C587.5,160,585.9,160.5,585.1,159.7z M591.8,170.5c-1.4,1.5-3.1,2-3.9,1.3s-0.2-2.5,1.2-3.9s3.1-2,3.9-1.3
	C593.8,167.4,593.2,169.1,591.8,170.5z M595.2,145c-2.3,0.9-4.5,0.3-5.2-1.4c-0.7-1.6-2-9.2,0.2-10c2.3-0.9,7.1,5.1,7.8,6.8
	C598.8,142.1,597.4,144.1,595.2,145z M603.9,124.7c-1,1-6.4,1.9-7.4,0.9s1.3-5.9,2.3-6.9c1-0.9,2.6-1,3.7,0
	C603.6,119.6,604.9,123.6,603.9,124.7z M668.6,147.1c-1,1-6.3,2-7.4,0.9c-1-1,1.3-5.9,2.3-6.9s2.6-1,3.7,0
	C668.2,142.1,669.6,146.1,668.6,147.1z M676.2,166.7c-1.3,1.2-3.3,1.2-4.6,0c-1.3-1.3,1.3-3.4,0-4.6c-2.8-2.8,6-5.1,7.4-3.8
	C680.3,159.6,677.6,165.3,676.2,166.7z M708.6,162.6c-3.6,1.4-8.3-2.3-10.5-8.2c-2.1-5.9-0.8-11.8,3-13.1c3.7-1.3,4,3.4,6.1,9.3
	C709.3,156.4,712.3,161.4,708.6,162.6z M717.9,126.4c-3,1.6-1.6,13.9-4.1,16.4c-2.4,2.5-8.1-3.3-10.5-5.7
	c-2.5-2.4-2.7-11.8-0.3-14.2C705.3,120.2,725.6,122.2,717.9,126.4z M782,186.3c-1.2,1.2-5.6-0.9-5.4-4.5c0.1-1.7-1.2-3,0-4.2
	c1.2-1.1,3-1.2,4.2,0C782,178.9,783.2,185.1,782,186.3z M881.1,126c-1.7-1.6-1.8-4.4-0.1-6c1.7-1.7,4.3-1.7,6-0.1
	c1.7,1.7,1.7,4.3,0.1,6C885.5,127.6,882.7,127.6,881.1,126z M885.7,160.1c-0.8-0.8-0.2-2.5,1.2-3.9s3.1-2,3.9-1.3
	c0.8,0.8,0.2,2.5-1.2,3.9C888.1,160.4,886.5,160.8,885.7,160.1z M892.4,170.9c-1.4,1.5-3.1,2-3.9,1.3s-0.2-2.5,1.2-3.9
	s3.1-2,3.9-1.3C894.3,167.7,893.8,169.5,892.4,170.9z M895.8,145.4c-2.3,0.9-4.5,0.3-5.2-1.4c-0.7-1.6-2-9.2,0.2-10
	c2.3-0.9,7.1,5.1,7.8,6.8S897.9,144.5,895.8,145.4z M904.5,125c-1,1-6.4,1.9-7.4,0.9s1.3-5.9,2.3-6.9c1-0.9,2.6-1,3.7,0
	C904.1,120,905.5,124,904.5,125z M969.1,147.5c-1,1-6.3,2-7.4,0.9c-1-1,1.3-5.9,2.3-6.9s2.6-1,3.7,0
	C968.7,142.5,970.1,146.5,969.1,147.5z M976.8,167c-1.3,1.2-3.3,1.2-4.6,0c-1.3-1.3,1.3-3.4,0-4.6c-2.8-2.8,6-5.1,7.4-3.8
	C980.9,160,978.1,165.7,976.8,167z"/>
</svg>
