<?xml version="1.0" encoding="utf-8"?>
<!-- Generator: Adobe Illustrator 27.3.1, SVG Export Plug-In . SVG Version: 6.00 Build 0)  -->
<svg version="1.1" id="Layer_1" xmlns:v="https://vecta.io/nano"
	 xmlns="http://www.w3.org/2000/svg" xmlns:xlink="http://www.w3.org/1999/xlink" x="0px" y="0px" viewBox="0 0 440 374"
	 style="enable-background:new 0 0 440 374;" xml:space="preserve">
<style type="text/css">
	.st0{fill:#FFFFFF;}
</style>
<path class="st0" d="M352.8,279.7c0,0-5.4-56.4-51.7-65.2c-42-8-65.2,22.7-65.2,22.7c-11.4-80.4-117-58.2-115-4.6
	c-10.3-23.1-26.5-35-57.9-33.7C34.6,200.1,19,213.8,0,236.4V375h440v-41.8C432.1,249.8,352.8,279.7,352.8,279.7z M49.6,237.7
	c0.9,1.4,0.7,7.8-0.7,8.7c-1.4,0.9-5.3-2.1-4.3-5.5c0.5-1.6-0.5-3.2,0.9-4.1C46.9,236,48.7,236.3,49.6,237.7z M29.8,263.9
	c-0.7,0.7-6.2,2-4-4.3s-1.1-5.3-1.1-5.3c0.9-0.7,1.6-1.4,2.2-2.1c-1.5-1.4-2.7-2.6-3.2-3.4c-1.6-2.4-0.9-5.7,1.6-7.3
	c2.5-1.6,8.8-2.2,10.4,0.3c0.9,1.4,1.7,5.5,1.9,9.2c3.8-2.5,8.7,8.8,4.7,7.5c-4.2-1.3-5.8,6.3-5.8,6.3
	C35.1,262.5,30.5,263.2,29.8,263.9L29.8,263.9z M43.5,263.3c-0.6-0.9,0.3-2.5,2-3.6c1.7-1.1,3.5-1.3,4.1-0.4c0.6,0.9-0.3,2.5-2,3.6
	C45.9,264,44,264.2,43.5,263.3z M181.6,206.6c0.8,1.2,1.3,5.4,0.1,6.2c-1.2,0.8-6.7,0.5-7.4-0.7c-0.8-1.2,2.5-5.5,3.7-6.3
	C179.2,205.1,180.8,205.4,181.6,206.6C181.6,206.6,181.6,206.6,181.6,206.6z M159.8,202.8c2-1.3,4.6-0.7,5.9,1.2
	c1.3,2,0.7,4.6-1.2,5.9c-1.9,1.3-4.6,0.7-5.9-1.2S157.8,204,159.8,202.8z M150.7,234.1c-0.7-4.3-8.1-2.3-8.1-2.3
	c1.4-2.1-1.3-5.9-2.2-6.3s-4.5-4.7,2.1-5.5c6.7-0.9,4.2-3.4,4.2-3.4c7.7,3.9,13-2.9,13-2.9s-2,7.3-4.4,8.9c-2.3,1.6-5,1.9-0.2,3.7
	C159.6,228.2,151.4,238.5,150.7,234.1L150.7,234.1z M168.8,230.8c-2.4,0.4-4.5-0.7-4.8-2.5c-0.3-1.7,0-9.4,2.3-9.7
	c2.4-0.4,5.8,6.5,6.2,8.3S171.1,230.4,168.8,230.8z M155.8,243c-0.6-0.9,0.3-2.5,2-3.6c1.7-1.1,3.5-1.3,4.1-0.4s-0.3,2.5-2,3.6
	C158.1,243.8,156.4,243.9,155.8,243z M155.9,255.4c-0.6-0.9,0.3-2.5,2-3.6c1.7-1.1,3.5-1.3,4.1-0.4s-0.3,2.5-2,3.6
	C158.3,256.2,156.5,256.3,155.9,255.4z M292.6,238.9c1.9,2.9-4.5,13.2-7.5,15.1c-2.9,1.9-7.2-5-9-7.8c-1.9-2.9-0.1-12.1,2.7-13.9
	C281.7,230.2,290.7,236,292.6,238.9z M232.6,247.9c-0.8-1.2,2.5-5.5,3.7-6.3c1.2-0.8,2.8-0.4,3.6,0.8c0,0,0,0,0,0
	c0.8,1.2,1.3,5.4,0.1,6.2C238.8,249.4,233.4,249.2,232.6,247.9z M238.8,268.3c-1-1.5,2-3,1-4.5c-2.1-3.3,7-3.7,8-2.1
	s-2.9,6.6-4.5,7.6C241.8,270.2,239.8,269.8,238.8,268.3C238.8,268.3,238.8,268.3,238.8,268.3L238.8,268.3z M253.7,257.5
	c-1.9-2.9-1.1-6.8,1.8-8.6c0,0,0,0,0,0l0.2-0.2c-1.8-2.7-0.9-6.4,1.7-8.1c2.7-1.8,6.4-0.9,8.1,1.7c1.8,2.7,0.9,6.4-1.7,8.1l0.2,0.2
	c1.9,2.9,1.1,6.8-1.8,8.6c0,0,0,0,0,0C259.3,261.2,255.6,260.4,253.7,257.5L253.7,257.5z M267.3,262c-0.8-6.2,1.7-11.7,5.7-12.2
	c3.9-0.5,3.2,4.2,4,10.4c0.8,6.2,2.7,11.7-1.2,12.1C272,272.9,268.2,268.3,267.3,262z M261.3,280c0.5-1.6-0.5-3.2,0.9-4.1
	c1.4-0.9,3.2-0.5,4.1,0.9c0.9,1.4,0.7,7.8-0.7,8.7C264.2,286.4,260.3,283.4,261.3,280L261.3,280z M340.7,282.6c-1.4-0.5-4.5-5-4-6.4
	s5.9-1.3,7.3-0.8c1.4,0.5,2.1,2,1.5,3.4C345.1,280.1,342.1,283.1,340.7,282.6z M348.2,289c-1.9-0.7-3.1-2.1-2.7-3.1
	c0.4-1,2.2-1.3,4.1-0.6c1.9,0.7,3.1,2.1,2.7,3.1S350.1,289.6,348.2,289z M344.3,299.3c-0.6-0.9,0.3-2.5,2-3.6
	c1.7-1.1,3.5-1.3,4.1-0.4c0.6,0.9-0.3,2.5-2,3.6C346.8,300.1,345,300.3,344.3,299.3z M397.4,286.8c1.2-0.8,2.8-0.4,3.6,0.8
	c0,0,0,0,0,0c0.8,1.2,1.3,5.4,0.1,6.2c-1.2,0.8-6.7,0.5-7.4-0.7C392.9,291.9,396.2,287.6,397.4,286.8L397.4,286.8z M382.5,305.1
	c-0.8-1.2,2.5-5.5,3.7-6.3c1.2-0.8,2.8-0.4,3.6,0.8c0,0,0,0,0,0c0.8,1.2,1.3,5.4,0.1,6.2C388.8,306.5,383.4,306.4,382.5,305.1
	L382.5,305.1z M395.6,313.5c0.4-6.2-1.1-12.1,4.7-11.7c5.8,0.4,10.1,5.8,9.7,12.1c-0.4,6.2-5.4,11.1-11.2,10.7
	C392.9,324.3,395.1,319.9,395.6,313.5z M390.9,337.3c-1.3-2-4.1-2.8-2.8-3.7c1.4-0.9,3.6,0,4.8,1.9c1.3,2,1.2,4.3-0.2,5.2
	C391.4,341.6,392.2,339.3,390.9,337.3z"/>
</svg>
