<?xml version="1.0" encoding="utf-8"?>
<!-- Generator: Adobe Illustrator 27.3.1, SVG Export Plug-In . SVG Version: 6.00 Build 0)  -->
<svg version="1.1" id="Layer_1" xmlns:v="https://vecta.io/nano"
	 xmlns="http://www.w3.org/2000/svg" xmlns:xlink="http://www.w3.org/1999/xlink" x="0px" y="0px" viewBox="0 0 440 218"
	 style="enable-background:new 0 0 440 218;" xml:space="preserve">
<style type="text/css">
	.st0{fill:#FFFFFF;}
</style>
<path class="st0" d="M352.8,123.7c0,0-5.4-56.4-51.7-65.2c-42-8-65.2,22.7-65.2,22.7c-11.4-80.4-117-58.2-115-4.6
	c-10.3-23.1-26.5-35-57.9-33.7C34.6,44.1,19,57.8,0,80.4V219h440v-41.8C432.1,93.8,352.8,123.7,352.8,123.7z M49.6,81.7
	c0.9,1.4,0.7,7.8-0.7,8.7s-5.3-2.1-4.3-5.5c0.5-1.6-0.5-3.2,0.9-4.1C46.9,80,48.7,80.3,49.6,81.7z M29.8,107.9c-0.7,0.7-6.2,2-4-4.3
	s-1.1-5.3-1.1-5.3c0.9-0.7,1.6-1.4,2.2-2.1c-1.5-1.4-2.7-2.6-3.2-3.4c-1.6-2.4-0.9-5.7,1.6-7.3s8.8-2.2,10.4,0.3
	c0.9,1.4,1.7,5.5,1.9,9.2c3.8-2.5,8.7,8.8,4.7,7.5c-4.2-1.3-5.8,6.3-5.8,6.3C35.1,106.5,30.5,107.2,29.8,107.9L29.8,107.9z
	 M43.5,107.3c-0.6-0.9,0.3-2.5,2-3.6s3.5-1.3,4.1-0.4s-0.3,2.5-2,3.6C45.9,108,44,108.2,43.5,107.3z M181.6,50.6
	c0.8,1.2,1.3,5.4,0.1,6.2s-6.7,0.5-7.4-0.7c-0.8-1.2,2.5-5.5,3.7-6.3C179.2,49.1,180.8,49.4,181.6,50.6L181.6,50.6z M159.8,46.8
	c2-1.3,4.6-0.7,5.9,1.2c1.3,2,0.7,4.6-1.2,5.9c-1.9,1.3-4.6,0.7-5.9-1.2S157.8,48,159.8,46.8z M150.7,78.1c-0.7-4.3-8.1-2.3-8.1-2.3
	c1.4-2.1-1.3-5.9-2.2-6.3s-4.5-4.7,2.1-5.5c6.7-0.9,4.2-3.4,4.2-3.4c7.7,3.9,13-2.9,13-2.9s-2,7.3-4.4,8.9c-2.3,1.6-5,1.9-0.2,3.7
	C159.6,72.2,151.4,82.5,150.7,78.1L150.7,78.1z M168.8,74.8c-2.4,0.4-4.5-0.7-4.8-2.5c-0.3-1.7,0-9.4,2.3-9.7
	c2.4-0.4,5.8,6.5,6.2,8.3S171.1,74.4,168.8,74.8z M155.8,87c-0.6-0.9,0.3-2.5,2-3.6s3.5-1.3,4.1-0.4s-0.3,2.5-2,3.6
	C158.1,87.8,156.4,87.9,155.8,87z M155.9,99.4c-0.6-0.9,0.3-2.5,2-3.6s3.5-1.3,4.1-0.4s-0.3,2.5-2,3.6
	C158.3,100.2,156.5,100.3,155.9,99.4z M292.6,82.9c1.9,2.9-4.5,13.2-7.5,15.1c-2.9,1.9-7.2-5-9-7.8c-1.9-2.9-0.1-12.1,2.7-13.9
	C281.7,74.2,290.7,80,292.6,82.9z M232.6,91.9c-0.8-1.2,2.5-5.5,3.7-6.3s2.8-0.4,3.6,0.8l0,0c0.8,1.2,1.3,5.4,0.1,6.2
	C238.8,93.4,233.4,93.2,232.6,91.9z M238.8,112.3c-1-1.5,2-3,1-4.5c-2.1-3.3,7-3.7,8-2.1s-2.9,6.6-4.5,7.6
	C241.8,114.2,239.8,113.8,238.8,112.3L238.8,112.3L238.8,112.3z M253.7,101.5c-1.9-2.9-1.1-6.8,1.8-8.6l0,0l0.2-0.2
	c-1.8-2.7-0.9-6.4,1.7-8.1c2.7-1.8,6.4-0.9,8.1,1.7c1.8,2.7,0.9,6.4-1.7,8.1l0.2,0.2c1.9,2.9,1.1,6.8-1.8,8.6l0,0
	C259.3,105.2,255.6,104.4,253.7,101.5L253.7,101.5z M267.3,106c-0.8-6.2,1.7-11.7,5.7-12.2c3.9-0.5,3.2,4.2,4,10.4
	s2.7,11.7-1.2,12.1C272,116.9,268.2,112.3,267.3,106z M261.3,124c0.5-1.6-0.5-3.2,0.9-4.1s3.2-0.5,4.1,0.9s0.7,7.8-0.7,8.7
	C264.2,130.4,260.3,127.4,261.3,124L261.3,124z M340.7,126.6c-1.4-0.5-4.5-5-4-6.4s5.9-1.3,7.3-0.8s2.1,2,1.5,3.4
	C345.1,124.1,342.1,127.1,340.7,126.6z M348.2,133c-1.9-0.7-3.1-2.1-2.7-3.1s2.2-1.3,4.1-0.6c1.9,0.7,3.1,2.1,2.7,3.1
	S350.1,133.6,348.2,133z M344.3,143.3c-0.6-0.9,0.3-2.5,2-3.6s3.5-1.3,4.1-0.4s-0.3,2.5-2,3.6C346.8,144.1,345,144.3,344.3,143.3z
	 M397.4,130.8c1.2-0.8,2.8-0.4,3.6,0.8l0,0c0.8,1.2,1.3,5.4,0.1,6.2c-1.2,0.8-6.7,0.5-7.4-0.7C392.9,135.9,396.2,131.6,397.4,130.8
	L397.4,130.8z M382.5,149.1c-0.8-1.2,2.5-5.5,3.7-6.3s2.8-0.4,3.6,0.8l0,0c0.8,1.2,1.3,5.4,0.1,6.2
	C388.8,150.5,383.4,150.4,382.5,149.1L382.5,149.1z M395.6,157.5c0.4-6.2-1.1-12.1,4.7-11.7c5.8,0.4,10.1,5.8,9.7,12.1
	c-0.4,6.2-5.4,11.1-11.2,10.7C392.9,168.3,395.1,163.9,395.6,157.5z M390.9,181.3c-1.3-2-4.1-2.8-2.8-3.7c1.4-0.9,3.6,0,4.8,1.9
	c1.3,2,1.2,4.3-0.2,5.2C391.4,185.6,392.2,183.3,390.9,181.3z"/>
</svg>
