<svg xmlns="http://www.w3.org/2000/svg" viewBox="0 0 300 640" fill="#fff" xmlns:v="https://vecta.io/nano"><path d="M42.9 32.8c11.1-7.5 24.9-5.2 36 1.7 13.5 8.4 20.3 22.7 23.5 37.8 3.8 17.8 3 36.5 3.2 54.6l.5 63 .5 63c.1 9.1 1.6 18.3 10.8 22.6 7.2 3.4 15.8 4.2 23.7 4.8 14.2 1.2 30.3-.1 42-9 6.5-4.9 11.2-11.8 13.4-19.6 2.4-8.4 1.8-17.3.4-25.8-2.4-15.2-8.2-29.1-6.9-44.5 1-11.2 7.2-23.5 20.3-22.2 16.6 1.7 23.6 19.6 25.9 33.7 1.5 9.3 2 18.9 2.5 28.3.6 10.5.9 21 .9 31.6 0 10.3-.3 20.7-.8 31-.5 8.4-.6 17.2-3.1 25.3-2.2 7.2-6.9 12.5-14.1 14.8-8.3 2.7-17.3 2.9-25.9 3.5-20.8 1.4-41.7 1.3-62.6.1-8.8-.5-18.1 1.8-20.4 11.6-1.1 4.6-.8 9.6-.8 14.3l-.1 15.8c-.2 41.7.5 83.4 2.2 125l1.4 31.7c.5 9.3 1.1 18.9 6.2 27 4.5 7.2 11.3 12.5 15.8 19.6 4.3 6.6 7.1 14.2 8.2 22.1 1.1 7.8.4 15.7-1.9 23.2-2.2 7.4 9.4 10.6 11.6 3.2 5.1-16.8 3-35.4-5.4-50.9-4.3-7.8-10.7-13.6-16.1-20.5-5.6-7.1-6-15.5-6.5-24.2-2.2-42.4-3.4-84.9-3.6-127.3v-31.7l.1-16.4c0-2.4-.9-8 1.4-9.7s7.4-.6 10-.5c5.3.3 10.5.5 15.8.6 10.5.3 21.1.2 31.6-.2 10.1-.4 20.3-.9 30.4-2.2 8.9-1.2 17.6-3.5 24.4-9.5 6.4-5.6 9.6-14 11-22.2 1.7-9.5 2-19.2 2.4-28.8.9-21.2.7-42.5-.8-63.7-1.3-18.4-2.3-39.1-15.2-53.7-10.5-11.9-29.3-17.6-42.9-7.6-11.8 8.7-15 24.3-14.3 38.2.8 16.3 8.1 31.5 8.3 47.8.1 7.3-1.7 14.7-6.7 20.2-4.5 4.8-10.4 7.5-16.8 8.9-6.9 1.5-14.1 1.5-21.2.9-3.4-.3-6.8-.7-10.2-1.3-3.2-.6-7.2-1-9.9-3-2.9-2.1-2.7-6.3-2.7-9.5l-.1-15.8-.3-32.4-.5-63.6c-.2-19.7.6-39.6-1.5-59.2-1.7-17.7-6.3-35.7-18.4-49.1-10-11.1-25.1-18.8-40.2-18.5-7.3.1-14.5 2.3-20.6 6.4-6.3 4.2-.3 14.6 6.1 10.3h0z"/><path d="M83.9 42.4l4.2-6.5c.3-.5.7-.9 1-1.4.4-.6-.8 1-.1.1.2-.3.4-.5.6-.8l2.5-3a66.25 66.25 0 0 1 5.3-5.3l3-2.5c.2-.2.4-.3.6-.5 1-.8-.8.6-.1.1.6-.4 1.1-.8 1.7-1.3 1.3-.9 2.3-2 2.8-3.6.4-1.4.2-3.3-.6-4.6-1.6-2.5-5.5-4.1-8.2-2.2-9.4 6.7-17.3 15.3-23 25.3-1.6 2.7-.7 6.7 2.2 8.2 2.8 1.7 6.5.9 8.1-2h0zM64.6 98.3C69.2 96.1 73.9 94 78 91c1.6-1.2 3.2-2.4 4.7-3.7.7-.6 1.4-1.1 2.1-1.7.4-.3-1.4 1.1-.4.3.2-.2.4-.3.7-.5.5-.4 1-.8 1.6-1.1 1.3-.9 2.3-2 2.8-3.6.4-1.4.2-3.3-.6-4.6-1.6-2.5-5.5-4.1-8.2-2.2l-6 4.6-1.8 1.5c-.3.2-.6.5-.9.7 1.9-1.6.6-.5.1-.1-4.1 3-8.8 5.2-13.4 7.3-2.9 1.3-3.8 5.7-2.2 8.2 1.8 3 5.1 3.6 8.1 2.2h0zm29.1 26.3c13.2-1 26.3-3.4 38.9-7.2 3-.9 5.2-4.2 4.2-7.4-1-3-4.2-5.2-7.4-4.2-6 1.8-12.1 3.3-18.2 4.5-1.5.3-3 .5-4.5.8-.8.1-1.6.2-2.4.4-.4.1-.8.1-1.2.2-.3 0-1.5.2-.1 0-3.1.5-6.3.7-9.5 1-3.1.2-6.2 2.6-6 6 .3 3 2.9 6.2 6.2 5.9h0zm-61 83c6.9-.6 13.3-3 19.6-5.7 6.7-2.8 13.2-6 19.8-9 .8-.4 1.6-.7 2.4-1.1 0 0-1.4.6-.6.2.2-.1.4-.2.6-.2.4-.2.8-.3 1.1-.5 1.5-.6 3-1.1 4.5-1.6 3-.9 5.2-4.2 4.2-7.4-1-3-4.2-5.2-7.4-4.2-6.3 1.9-12.2 4.9-18.2 7.6l-9.7 4.4c-.4.2-.8.3-1.2.5-.2.1-.3.1-.5.2-.7.3 1.2-.5.4-.2s-1.6.7-2.5 1c-1.5.6-3 1.2-4.5 1.7-1.6.6-3.3 1.1-5 1.5-.7.2-1.5.3-2.3.5-.3.1-1.6.2-.4.1 1.2-.2-.2 0-.5 0-3.1.3-6.2 2.6-6 6 .3 3.3 2.9 6.5 6.2 6.2h0zm185.7-38.8v-26.4c0-3.1-2.8-6.1-6-6-3.3.1-6 2.6-6 6v26.4c0 3.1 2.8 6.1 6 6 3.3-.1 6-2.6 6-6h0zm15.1 68.7l7.4-2.2 3.7-.8 1.9-.3c.6-.1 1.5-.4 2.1-.3-.4-.1-1 .1-.2 0 .3 0 .6-.1.9-.1.6-.1 1.2-.1 1.9-.2l3.8-.2 8 .1c3.1.2 6.1-2.9 6-6-.2-3.4-2.6-5.8-6-6-11-.6-22.2 1-32.6 4.5-3 1-5.2 4.2-4.2 7.4.9 2.9 4.1 5.2 7.3 4.1h0zm-29.3 83v15.4c0 3.1 2.8 6.1 6 6 3.3-.1 6-2.6 6-6v-15.4c0-3.1-2.8-6.1-6-6-3.2.2-6 2.7-6 6h0zM156.8 281v-30.8c0-3.1-2.8-6.1-6-6-3.3.1-6 2.6-6 6V281c0 3.1 2.8 6.1 6 6 3.3-.2 6-2.7 6-6h0zm-49.9 111.5h33c3.1 0 6.1-2.8 6-6-.1-3.3-2.6-6-6-6h-33c-3.1 0-6.1 2.8-6 6s2.6 6 6 6h0zm-45 52l27.7-.4c3.1 0 6.1-2.8 6-6s-2.6-6-6-6c-9.2 0-18.5.4-27.7.4-3.1 0-6.1 2.8-6 6s2.6 6 6 6h0zm11-129h33c3.1 0 6.1-2.8 6-6-.1-3.3-2.6-6-6-6h-33c-3.1 0-6.1 2.8-6 6s2.6 6 6 6h0zm29.7 201.6c6.6 0 13.2-1.4 19.6-2.8 6.5-1.5 13-3.2 19.6-4.3.8-.1 1.7-.3 2.6-.4.2 0 .4-.1.5-.1.8-.1-1.3.2-.5.1.4 0 .8-.1 1.2-.1a41.93 41.93 0 0 1 5-.3c3.1 0 6.1-2.7 6-6-.1-3.2-2.6-6-6-6-6.6 0-13.2 1.4-19.6 2.8-6.5 1.5-13 3.2-19.6 4.3-.8.1-1.7.3-2.6.4-.2 0-.4.1-.5.1-.8.1 1.3-.2.5-.1-.4 0-.8.1-1.2.1a41.93 41.93 0 0 1-5 .3c-3.1 0-6.1 2.7-6 6 .1 3.2 2.6 6 6 6h0z"/></svg>