<svg xmlns="http://www.w3.org/2000/svg" viewBox="0 0 190 190" fill="#fff" xmlns:v="https://vecta.io/nano"><path d="M72.4 37C59.1 55.3 47 74.5 36.3 94.5c-5.3 9.9-10.3 20.1-15 30.4-1.3 2.8-2.9 5.7-3.6 8.7-1 4.2-.1 8.2 2.9 11.3 2.1 2.2 4.9 3.9 7.4 5.8 2.5 1.8 4.9 3.7 7.4 5.5l33.3 24.9c2 1.5 5.7.9 7.3-.9 20.7-24.2 41.8-48.1 63.4-71.5L157.6 89c2.1-2.2 2.5-6.3 0-8.5a421.71 421.71 0 0 0-56-40.8c-5.5-3.3-11-6.5-16.6-9.5v10.4c3.4-2.4 7-4.4 10.7-6.1.1 0 .6-.3.7-.3-.1 0-1.3.5-.3.1.4-.2.9-.3 1.3-.5 1-.4 2-.7 3-1.1 2-.6 3.9-1.2 5.9-1.6l2.9-.6c.5-.1.9-.1 1.4-.2-1.7.4 0 0 .6-.1a62.28 62.28 0 0 1 6.1-.3c2 0 4 .2 6 .4.8.1-1.2-.2-.4-.1.3 0 .5.1.8.1.4.1.9.2 1.3.2 1 .2 2 .4 3 .7 2 .5 3.9 1.2 5.7 1.9.8.3-1.1-.5-.3-.1.2.1.5.2.7.3l1.2.6c.8.4 1.6.8 2.4 1.3.7.4 1.4.9 2.1 1.4.3.2.6.4 1 .7.2.1.4.3.5.4-1.3-.8-.6-.5-.3-.2 1.4 1.1 2.7 2.3 3.9 3.5.6.6 1.2 1.2 1.7 1.9.3.3.5.6.8.9.1.2.3.4.4.5-1.1-1.2-.5-.6-.2-.3 1 1.4 2 2.9 2.9 4.4.4.7.8 1.5 1.2 2.2.2.4.3.7.5 1.1l.3.6c.5 1.1-.4-1-.1-.3.6 1.6 1.2 3.2 1.7 4.9.3 1 .5 1.9.7 2.9.1.4.1.9.2 1.3.2 1-.1-.6-.1-.6 0 .3.1.5.1.8.2 1.9.3 3.8.1 5.8 0 .4-.1.9-.1 1.3 0 .2 0 .4-.1.7-.1 1 .2-1.2.1-.5-.2.9-.3 1.8-.5 2.7-.2 1-.5 1.9-.8 2.9-.1.4-.3.8-.5 1.2-.3.9.2-.4.2-.5-.2.3-.3.6-.4.9-1.3 2.8-.9 6.6 2.2 8.2 2.7 1.4 6.8.9 8.2-2.2 3.7-7.9 4.6-16.4 3-25-1.5-8.1-5.4-15.6-10.6-21.9-5.4-6.6-12.7-11.4-20.8-14.2-9-3.2-18.6-3.5-27.9-2C96.8 20.2 87 24.2 78.7 30c-1.8 1.2-3 2.9-3 5.2 0 2.1 1.1 4.2 3 5.2 9.9 5.4 19.5 11.2 28.9 17.3 4.7 3.1 9.3 6.3 13.9 9.5 2.3 1.6 4.5 3.3 6.8 5 1.1.8 2.2 1.6 3.3 2.5.3.2 2 1.5.8.6.6.4 1.2.9 1.8 1.4 5 3.9 9.9 8 14.8 12.1v-8.5c-21.8 23.3-43.1 46.9-64.1 70.9l-17.5 20.3 7.3-.9L46 149.2l-14.3-10.7c-.5-.4-1.1-.8-1.6-1.2-.9-.7.3.2.3.2l-.7-.6-.5-.5c-.6-.5.7 1.3.1.2-.2-.4-.3-.8.1.4-.4-1.2 0 1.2 0-.1 0-.9-.2.2-.1.3 0-.1.2-.9.2-.9.1-.3.2-.6.3-.8.4-1.4-.4.8 0 0l1.8-4c9-19.9 19.2-39.2 30.7-57.7C68.6 63.3 75.5 53 82.8 43.1c1.9-2.5.5-6.8-2.2-8.2-3.1-1.7-6.2-.6-8.2 2.1h0z"/><path d="M137.7 54l14.1-20.3 7.1-10.1c.9-1.4 1.9-2.7 2.6-4.2 1.2-2.4 1.8-4.6 2.1-7.3.2-1.4-.8-3.3-1.8-4.2-1-1-2.7-1.8-4.2-1.8-3.6.2-5.6 2.6-6 6 .2-2.1-.1 1.1-.4 1.2.4-.8.4-.9.1-.3-.1.1-.1.2-.2.4l-.6 1.1c-.9 1.5-1.9 2.9-2.9 4.3l-6.8 9.7L127.2 48c-1.8 2.6-.6 6.8 2.2 8.2 3.2 1.6 6.4.6 8.3-2.2h0z"/></svg>