<svg xmlns="http://www.w3.org/2000/svg" viewBox="0 0 120 290" xmlns:v="https://vecta.io/nano"><path d="M48 117.2c-4.8 7.1-6.5 15.5-7.5 23.8-1 8.9-1.3 17.8-1.9 26.8l-2.8 56.5c-.4 9.3-1 18.7-.9 28 .1 8.4 2.5 18 10.6 22.1 3.7 1.8 8 2.3 11.8.8s6.8-4.2 9.1-7.5c4.9-6.9 6.1-15.9 6.6-24.2.5-9.3.3-18.6.3-27.9l.1-28.2.2-56.9v-6.7c0-1 0-2 .1-3.1 0-.5.1-1.1.1-1.6 0-.2 0-.5.1-.7 0-.1.1-1.1 0-.4.1-1 .3-2 .6-3 .1-.5.2-.9.4-1.3.1-.2.1-.4.2-.7 0 0 .4-1.1.2-.6-.2.4.1-.2.1-.2.1-.2.2-.5.4-.7.2-.4.4-.7.6-1.1.5-.8 1-1.6 1.6-2.4l.9-1.2c.3-.4 0 0-.1.1.2-.2.3-.4.5-.7.6-.8 1.2-1.5 1.9-2.2 1.2-1.4 2.5-2.8 3.7-4.3 2.6-3 5-6.2 7-9.7 7.7-13.5 9.5-29.4 9.2-44.7-.1-7.6-.7-15.1-1.5-22.6-.4-4.2-.8-8.9-4.3-11.7-3.7-3-8.4-3-12.5-1-8.5 4-8.5 14.8-9.1 22.8l-1 13.9-.5 6.8c-.1 1-.1 1.9-.2 2.9 0 .2 0 .4-.1.6-.1.7.2-.7 0 0l-.3 1.4c-.1.3-.2.5-.2.8 0 .1-.3.6-.1.2.2-.5-.1.1-.1.2-.1.2-.3.5-.4.7.4-.6 0-.2-.2.1l.2-.2c-.1.1-.7.5-.2.2s-.4.1-.6.2c-.5.3.5-.1.4 0 0 0-.6.1-.6 0 0 0 .9.1.4.1-.1 0-.4-.1-.4-.1-.1-.2.9.5.9.5-.1 0-.4-.4-.4-.5.4 1.1.9 2.1 1.3 3.2l-1.7-35c-.2-5-.1-10.2-2.6-14.7-1.2-2.1-3.1-4-5.4-4.7-2.7-.9-5.7 0-7.8 1.8-4 3.5-3.3 9.7-3.3 14.5V43v8.8c0 2.7.1 5.5-.1 8.2 0 .1-.1 1 0 .4s-.1.2-.1.4c-.1.2-.2.5-.2.7-.1.6.3-.6 0 0-.4.6.7-.7-.1.1.1-.1.8-.6.1-.1-.3.2-.6 0 .1 0-.2 0-1.1.1-.4.1.6 0-.1-.1-.3 0-.6.1.7.2.1 0-.2-.1-.5-.1-.7-.2-.6-.1.6.4.1.1-.2-.1-.4-.3-.6-.3-.5-.2.5.5 0 0l-.7-.7c-.6-.5.1.2-.2-.2-.3-.5-.6-.9-.8-1.4-.1-.2-.3-.5-.4-.7-.1-.1-.4-.9-.2-.4s-.1-.3-.2-.4c-.1-.3-.2-.5-.3-.8-.3-.7-.5-1.5-.7-2.2-.8-2.5-1.3-5-1.7-7.6.1.7 0-.1 0-.2 0-.4-.1-.8-.1-1.2-.1-.6-.1-1.3-.1-1.9-.1-1.3-.1-2.7-.1-4a26.93 26.93 0 0 1 .3-4c0-.3.1-.6.1-.9.1-.8-.1.6 0-.2.1-.7.2-1.4.4-2.1 1.4-7.7 3.4-19.1-5.4-23.3-5.2-2.5-11.4-.7-15.1 3.5-3.8 4.3-4.7 10-5.3 15.5-1 9.9-.3 20 1.7 29.8S25.4 77.2 30.1 86c2.3 4.3 4.9 8.3 7.8 12.2 1.4 1.9 2.9 3.8 4.2 5.9a47.53 47.53 0 0 1 1.7 3.1c.1.1.4.9.2.4s.1.3.1.4c.2.6.4 1.1.5 1.7.1.2.1.5.2.8-.2-.8 0-.3 0-.1v.7.5c0-.6 0 .1-.1.3s-.2.5-.2.7c-.1.6.3-.6 0 0-.2.3-.3.6-.5.9-1.2 2-.5 5 1.6 6.2 2.2 1.2 4.9.5 6.2-1.6 3.8-6.2 1.3-13.4-2.4-19.1-1.7-2.6-3.6-4.9-5.4-7.4-1.8-2.6-3.5-5.3-5.1-8-1.5-2.6-2.9-5.3-4.1-8.1-.3-.7-.6-1.3-.9-2 .4.8-.2-.5-.2-.5-.2-.4-.3-.8-.5-1.2-.6-1.5-1.1-3-1.6-4.5-2-5.9-3.4-11.9-4.2-18.1.1.8 0-.1 0-.3 0-.4-.1-.7-.1-1.1-.1-.7-.1-1.4-.2-2.2l-.3-5c-.1-3.1-.1-6.2.1-9.3.1-1.5.2-3 .4-4.5 0-.4.1-.7.1-1.1-.1 1 .1-.4.1-.5.1-.8.3-1.7.5-2.5.2-.7.4-1.4.7-2-.3.7 0 0 .1-.1.2-.4.4-.8.6-1.1.2-.4.4-.7.7-1.1-.1.2-.6.6 0 0 .3-.3.6-.5.8-.8-.6.6.1-.1.3-.2.3-.2.7-.4 1-.6-.7.4-.3.1 0 0 .4-.1.7-.2 1.1-.3 1-.3-.8-.1.2 0h.7c-1.1 0-.1 0 .2.1.8.2.1 0-.1-.1.2.1.4.2.5.3.4.3.3.2-.2-.2 0 0 .4.3.4.4.7.7-.1.2 0-.1 0 0 .8 1.2.7 1.2s-.4-1 0 0c.1.2.1.4.2.6.1.3.1.6.2.9.2 1 0-.9 0 0 .1 1.2.1 2.4 0 3.6 0 .6-.1 1.1-.2 1.7-.1 1.1.1-.7 0 0-.1.4-.1.8-.2 1.2-.5 3.1-1.2 6.2-1.5 9.4-.7 7 .1 14.4 2.3 21.1 2 6.4 5.9 14 13.7 13.6 4.1-.2 7.3-2.7 8.6-6.5 1.1-3.3.7-7.1.7-10.5V31 20v-.8c0-.5.2-1.1.4-1.6.2-1-.5.8.1-.1.4-.6-.2.1-.2.2 0-.1 1.1-1 0-.1.6-.5-.7.2.1 0-.2 0-.4.1-.7.1.5 0 .4 0-.4-.1.2 0 .3.1.5.1-.2-.1-.4-.2-.6-.2.2.1.3.2.4.3-.4 0-.7-.6-.1 0 .5.5-.2-.2-.2-.2.1 0 .4.7.5.8l.3.6c.2.4.2.4-.1-.2.1.2.2.4.2.6.2.5.3 1.1.5 1.6.1.3.1.6.2.8.2.6-.1-1.1 0-.1l.3 5.3 1.1 22.4.5 11.1c.1 2.4-.1 4.8 1.8 6.6 1.5 1.4 3.5 2.2 5.6 2.3 3.5.1 6.8-1.8 8.8-4.7s2.4-6.6 2.6-10l1.6-21.8c.1-1.7.2-3.3.4-5 .1-.8.1-1.5.2-2.3 0-.4.1-.7.1-1.1-.1 1 .1-.5.1-.7.1-.8.3-1.5.5-2.2.1-.3.2-.5.3-.8.4-1.2-.4.6.2-.4.2-.3.3-.6.5-.9.1-.2.7-.9.1-.2.2-.3.5-.5.7-.8.2-.2 1-.7.2-.2.5-.3 1-.6 1.5-.8-1.4.6 1.5-.3.6-.1-.7.2.3 0 .4 0h.3c.5 0 .4 0-.2-.1l.6.2c.5.2.4.1-.2-.1l.6.3c-.1-.1-.7-.6-.1-.1.8.8-.3-.7.2.3.1.2.2.4.3.7-.5-.9 0 .2.1.3.2.6.3 1.3.4 1.9-.2-1.1 0 .2 0 .3 0 .4.1.8.1 1.2 1.2 11.9 2.1 23.9 1.1 35.9-.1 1.4-.3 2.9-.4 4.3-.2 1.3.1-.6 0 .2-.1.3-.1.7-.1 1-.1.8-.3 1.6-.4 2.4-.5 2.9-1.2 5.8-2.1 8.6-.4 1.3-.8 2.5-1.3 3.8-.2.6-.5 1.2-.7 1.8.4-.9-.1.3-.2.4-.2.4-.3.7-.5 1.1-1.3 2.7-2.7 5.2-4.4 7.6-.4.6-.8 1.1-1.2 1.6.5-.6-.1.1-.2.2-.2.3-.4.5-.7.8l-3 3.5c-2.2 2.5-4.4 5-6.3 7.7s-3.4 5.7-4.3 8.8c-1 3.5-1.3 7.1-1.3 10.7-.3 14.7-.1 29.4-.2 44.1l-.2 45-.1 22.1a180.53 180.53 0 0 1-.3 10.4c-.1.9-.1 1.8-.2 2.7 0 .4-.1.8-.1 1.2l-.1.8c-.3 1.8-.6 3.6-1 5.3-.3 1.3-.7 2.6-1.2 3.8-.1.2-.5 1.3-.1.3-.1.3-.3.6-.4.8-.3.7-.7 1.3-1.1 2-.3.6-.7 1.1-1.1 1.7-.1.2-.5.7 0 0-.2.3-.5.6-.7.8-.4.4-.8.9-1.2 1.3-.3.2-.5.5-.8.7.6-.5.2-.1-.2.1-.5.3-1 .6-1.5.8 1-.5.1 0-.2 0-.3.1-.5.1-.8.2s-1 .4 0 0c-.3.1-.7.1-1 .1h-.7c-.5 0-.5 0 .1 0-.2 0-.5-.1-.7-.2s-.5-.1-.7-.2c-1.1-.3.7.4-.3-.1-.5-.3-1.1-.6-1.6-1 .8.6-.1-.1-.3-.2-.2-.2-.4-.3-.5-.5-.3-.3-.5-.6-.8-.8-.8-.9.4.7-.2-.3-.3-.5-.7-1.1-1-1.6-.2-.3-.3-.7-.5-1 .5 1-.1-.3-.1-.4-.3-.7-.5-1.5-.6-2.3-.1-.3-.1-.6-.2-.9s-.1-.6-.2-.9c.1.4.1.3 0-.2-.3-3.4-.2-6.7-.1-10.1l.8-22.5 2.1-44.6 1.3-22.2.7-10.5c.1-1.5.2-3.1.4-4.6l.3-2.2c.2-1.4-.1.9.1-.5.1-.4.1-.9.2-1.3.5-3 1.2-5.9 2.1-8.8.9-2.5 1.9-4.6 3.7-7.4 1.3-2 .4-5.1-1.6-6.2-2-1-4.4-.3-5.8 1.8h0z" fill="#fff"/></svg>