<svg xmlns="http://www.w3.org/2000/svg" viewBox="0 0 440 374" xmlns:v="https://vecta.io/nano"><style><![CDATA[.E{letter-spacing:-4}]]></style><text transform="translate(66.738 146.451)" class="E" fill="#3d1c39" font-family="AthenaRustic" font-size="150.035">Gray’</text><g fill="#3d1c39"><path d="M132.9 227.5c-.1.1-.1.3.1.5s.3.3.4.1c-.1-.3-.3-.5-.5-.6zm16.4-29.5c.1-.1.1-.2 0-.2 0-.3-.1-.4-.3-.4-.1 0-.2.1-.2.2.1.2.3.3.5.4zm-83.7-25.4h.7a.76.76 0 0 0-.2-.4c-.3-.2-.5 0-.5.4zm52.1-17.4c.4.3.7.7.9 1.1s.3 1 .3 1.5l.3 21c.1.6 0 1.1-.3 1.5s-.7.7-1.2.7H99.4c-.5 0-.9.2-1.2.6s-.5.9-.3 1.7l.4 97.8a159.69 159.69 0 0 0 14.1 12c1.6-13.4 4.5-34.8 8.7-64.2l10.9-72.5c.1-.6.3-1.1.6-1.4h-15.1c0 .1.1.1.2.2zm31.5 72.9c0-.1-.1-.2-.3-.2s-.2.1-.2.2c.1.1.1.2.3.2l.2-.2zm-84.9-63.2v.7c.2.3.5.3.7 0 0-.3-.1-.5-.3-.7s-.3-.2-.4 0zm11.1 6.3c-.3.5-.4.9-.3 1 .3.6.7.4 1-.4.1-.3.2-.6.2-.9s-.1-.4-.3-.4c-.1-.1-.3.2-.6.7zm58.7 104.9h.7c-.2-.3-.5-.3-.7 0zm10.1-59.7c-.2-.1-.4-.1-.6 0a.55.55 0 0 0-.3.5.55.55 0 0 0 .3.5c.3 0 .5-.3.6-1zm2.6 3.6c-.1.2-.1.4 0 .5s.3.1.5 0 .3-.3.3-.4-.1-.3-.3-.3c-.2-.1-.4-.1-.5.2zm-12.7 54.6l.3-.7c.3-.9.2-1.4-.3-1.5-.2 0-.4.1-.5.2-.3.3-.3.8.2 1.5l.3.5zm14-57.8c.3-.7.3-1.2-.2-1.3-.3.1-.5.1-.6 0s-.2-.2-.5-.1-.5.1-.6.2.1.4.7 1l.9.9.3-.7zm-2.7-.2c0-.1-.1-.2-.2-.2s-.2.1-.2.2.1.2.2.2c.2 0 .2-.1.2-.2z"/><path d="M149 206.5c-.1.1-.1.3-.1.5.1.2.2.4.3.4.2.1.3 0 .3-.3.1-.3 0-.5-.2-.7 0 0-.2 0-.3.1zm-50.7-37.7a1.38 1.38 0 0 0 .4-.3c.1-.3.1-.6.1-.9-.1-.3-.1-.4-.3-.4-.1 0-.3.2-.4.6-.2.4-.2.6-.1.8 0 .1.1.2.3.2zm1.5 2.9c-.2.3-.2.5-.1.7.1.1.2.3.3.4h.3c.2-.1.4-.3.5-.4.2-.7.1-1.1-.5-1.1-.1 0-.3.1-.5.4zm-2.3-.6a.76.76 0 0 0-.2.4c.1.1.2.3.3.4.3 0 .4-.3.2-.9-.1-.1-.2-.1-.3.1zm5.4-2.3c-.1-.1-.2 0-.3.3s-.1.5 0 .7c.1.6.3.7.5.2v-.4c0-.5 0-.8-.2-.8zM85.2 183c-.1-.3-.3-.4-.4-.4-.2 0-.3.2-.4.7 0 .4-.2.8-.5 1.1v3.1c.1.3.2.6.2.9 0 .7-.1 1.1-.2 1.1v2.4c.1-.1.3-.3.5-.4.2 0 .4-.2.4-.6.1-.4.1-.6.3-.8.2-.3.2-.6 0-.9a1.39 1.39 0 0 1-.2-1.1c0-.6.2-.9.5-.9s.6.1.9.2c.2.1.4 0 .5-.3.1-.4.3-.4.5-.1.3.3.7.4 1 .2.3-.3.6-.8.7-1.5 0-.9-.2-1.3-.5-1.3-.1.1-.2.4-.2.7s-.1.4-.3.4-.5.1-.8.2-.5.1-.6 0c-.1-.3-.2-.4-.3-.4-.2 0-.3-.3-.3-.8s-.1-.8-.3-.8-.4-.2-.5-.7zm24-11c.3.6.7.4 1.2-.4.2-.4.6-1.1 1.1-1.9l1.3-1.9v-.2-1.1c-.2 0-.4.1-.5.4-.1.4-.3.7-.7.7-.2 0-.3.1-.3.4 0 .7-.5 1.8-1.5 3.1-.4.4-.6.7-.6.9zm-12.6-1.8l.2.2c.1-.1.1-.4 0-.7-.1.1-.2.2-.2.5zm16.2-6.2c-.1 0-.2.1-.2.2-.5.4-.4.8.2 1.1V164zm-8.2 8.4c.1 0 .3-.2.5-.7.2-.4.3-.8.3-1.1 0-1-.4-1-1.2 0-.3.3-.6.7-.7 1.1s-.3.8-.5 1.1h1c.2-.2.4-.4.6-.4zm2.8-4.2l.7-1.3c.2-.6.4-.9.5-.9s.2-.1.3-.3.1-.4-.1-.4c-.2-.1-.3 0-.4.3-.2.3-.5.4-.7.2-.3-.1-.7 0-.9.3-.3.4-.4.8-.3 1.2s0 .8-.3 1.1l-.3.9c-.1.6.5.2 1.5-1.1zm3.9-5.3h-.9c.2.1.4.2.6.2s.3-.1.3-.2zm-5.5 8.6c-.1.1-.1.4-.1.7.1.3.2.4.3.4.2 0 .3-.1.3-.4s-.1-.5-.2-.7c0-.1-.1-.1-.3 0zm3.1.7c-.3-.6-.6-.4-.9.7h1c.2-.3.1-.6-.1-.7zm25.4 10.2c-.1.1-.2.4-.2.7l-.2.9 6.7-1.1c.3-.1.6-.3.9-.4.1-.3.4-.4.8-.4s.6.1.7.2.5.1 1.2 0 1.2-.1 1.3 0 .3.1.5-.2c.3-.6.8-.5 1.4.2.3.4.7.7 1 .7l-.3-2.2-.2-.2c-.2-.1-.9-.1-2 0s-1.7.4-2 .7c0 .1-.1.2-.4.2s-.5 0-.6-.1-.5-.1-1 0c-.6.1-.9.2-1 .3-.2.1-.4.2-.6.2s-.3.1-.4.2c-.1.3-.4.4-.8.4s-.7-.1-.8-.4c-.6-.7-1-.7-1.4 0-.1.3-.6.4-1.5.4-.4-.1-.8-.1-1.1-.1zm-1 6.1h.2c.2 0 .5-.1.7-.2.1-.3.3-.4.5-.4a.47.47 0 0 0 .5-.5c0-.4-.2-.5-.5-.3-.2.1-.6.4-1.2.7l-.2.7zm13.8-13.3a.76.76 0 0 0-.2.4c-.2.6-.2 1.2.2 1.7.1.4.3.7.5.9-.1-1-.3-2-.5-3zm-.2 11.5l-.7.2c-.1.3-.2.5-.2.7 0 .1.1.2.2.2.5 0 .7-.4.7-1.1zm-2.9-17.2c-.1.1-.1.3-.1.5.1.2.2.3.3.3s.3-.1.3-.2c.1-.3.1-.5 0-.5-.1-.1-.2-.1-.5-.1zm2.9 24.8c.1.1.2.1.3 0 .1-.4-.1-.7-.5-.9-.1.1-.1.3-.1.5.1.3.2.4.3.4zm-1-4v.3c0 .1.1.2.2.1s.2-.2.2-.3-.1-.2-.2-.2-.2 0-.2.1zm1-4.9c0-.1-.1-.2-.2-.2s-.2.1-.2.2.1.2.2.2c.2 0 .2-.1.2-.2zm1 2.5c.1-.2 0-.4-.2-.7-.2-.2-.3-.3-.4-.1-.2.3-.2.6.2.9.2.2.3.1.4-.1zm-2.5-23.4c0-.1-.1-.2-.2-.2s-.2.1-.2.2.1.2.2.2c.2 0 .2-.1.2-.2zm-8.5 7.3c.2-.1.3-.2.2-.3 0-.3-.1-.5-.3-.7-.2-.1-.4-.1-.6 0-.1 0-.2.1-.2.2v.2a.76.76 0 0 0 .2.4c.2.2.4.3.7.2zm-51 10.8c.1 0 .2-.1.2-.3s-.1-.3-.2-.3-.2.1-.2.3.1.3.2.3zm53-9.6c.1-.1.1-.3 0-.5s-.2-.3-.3-.1a.76.76 0 0 0-.2.4c0 .1.1.3.2.3.1.1.2 0 .3-.1zm5.7 3.9c-.2.1-.2.4 0 .9l.5.9c.2.3.5.3.7 0-.1-.3-.3-.5-.4-.8-.2-.2-.3-.5-.4-.8-.2-.3-.3-.3-.4-.2zm-3.4-3.7c.1-.1 0-.3-.1-.5a.55.55 0 0 0-.5-.3c-.3.1-.3.5.2 1.1.2-.1.4-.2.4-.3z"/><ellipse cx="148.3" cy="190.1" rx=".2" ry=".3"/><path d="M144.4 197.8c.1 0 .3-.2.5-.7.2-.4.3-.7.2-.9-.2-.6-.5-.4-.7.4-.2.7-.2 1.1 0 1.2zm-6.9-10.9c-.1-.1-.3-.1-.7.2-.3.4-.3.7 0 .9.2 0 .4-.1.6-.4s.3-.5.1-.7zm.2 23.6c.2.1.4.1.5 0s.1-.4 0-.7-.3-.4-.5-.3-.3.2-.3.4.1.4.3.6zm1-15.7c-.1-.1-.3-.2-.5-.2-.1.1-.1.3 0 .4h.3l.2-.2zm-2.8 15.7c.1.1.1.2.3.2.1 0 .2-.1.2-.2s-.1-.2-.3-.2-.2 0-.2.2zm-1.3 14.7c-.1.1-.2.3-.2.8 0 .3-.1.5-.2.7-.2.3-.2.6.2.9.3-.4.7-.8 1.2-1.1 0-.9-.1-1.3-.4-1.3-.3-.1-.5-.1-.6 0zm7.6-19.8c-.1-.2-.3-.3-.5-.1a.55.55 0 0 0-.3.5c.1.2.2.3.3.3a.76.76 0 0 0 .4-.2c.2-.1.2-.3.1-.5zm-1.1 5.1c0-.1.1-.3.3-.4.1 0 .2-.1.3-.4s0-.5-.1-.7c-.1-.1-.5-.2-1.3-.1-.7.1-1.2.2-1.4.3s-.2.3-.2.5c.1.2.2.3.4.3s.4.1.5.2.3.2.5.2.4.1.5.2c.2.2.3.2.5-.1zm-.7 1.9c-.1.1-.1.3 0 .4s.2.2.3.1.1-.2 0-.4-.1-.2-.3-.1zm4-24.6l-.2.2.2.2v-.4zm-4.5 28.8h-.3c.1.1.2.1.3 0zm.7-29.2c.1-.1.1-.4-.2-.9-.2 0-.3-.1-.3-.4-.1-.7-.3-.9-.7-.7-.1.1-.1.3-.1.5.1.2.2.5.5.9s.6.6.8.6zm-1.5 3.5c0 .1.1.2.3.2s.2-.1.2-.2c-.1-.1-.1-.2-.3-.2-.2-.1-.2 0-.2.2zm19 55.3c-.2-.1-.4-.1-.5 0s-.2.3-.2.5.1.4.2.5c.2.1.5.2.7.2-.2-.3-.2-.7-.2-1.2zM84 263.5v2.2c0-.3.1-.5.2-.7 0-.9-.1-1.5-.2-1.5zm.9 3.1c-.1-.1-.2-.2-.4-.2.1.2.3.3.4.5v-.3zm-.5-5.9c0 .3.3.4.9.4.5 0 .8-.1 1.1-.4s.4-.6.3-.9c-.2-.6-.9-.9-1.9-.9-.2 0-.4-.3-.5-.9a.76.76 0 0 0-.2-.4v2.7c.2.1.3.2.3.4zm4.7 3.1c0-.1-.1-.2-.3-.2s-.3.1-.3.2.1.2.3.2c.3 0 .3-.1.3-.2zm-6.3-88.1c.1 0 .2-.1.3-.2s.1-.3-.2-.4c-.1 0-.3 0-.4.1-.2.1-.2.2-.1.3.2.2.3.2.4.2zm4.5 4.4c-.2.1-.4.3-.4.6-.1.2.1.4.4.6.2.1.5.4.7.7.2.4.4.5.5.2v-.4c-.1-.3-.2-.7-.3-1.1-.1-.7-.4-.8-.9-.6zm6.6-5.7v.2l.3-.2c-.1-.1-.2-.1-.3 0zm-2 98.9c-.3-.1-.7 0-1 .4l.9.9h.1v-1.3zm-.5-9.4c0-.1-.1-.1-.2-.1-.1-.3-.2-.3-.3 0v.4c.1.1.2.1.3 0s.2-.2.2-.3zm-1 5.6c-.2 0-.3.1-.3.2-.2.4-.5.2-.7-.7-.1-.3-.3-.4-.7-.4-.6.3-.6.7 0 1.1.3.3.5.6.5.8s.1.3.3.3.3-.1.4-.2c0-.3.1-.4.3-.4.2-.1.3-.3.3-.4.2-.2.1-.3-.1-.3zm-3.5-7.1c0-.4-.2-.7-.5-.7s-.6.2-.9.7c-.1.3-.2.7-.2 1.1.1 0 .4-.1.9-.2s.7-.4.7-.9zm-2.7-32H84v.9c.4-.3.4-.6.2-.9zm1.2 35.8c.1.6.3.9.7.9.2 0 .4-.1.5-.2 0-.6-.3-1.3-.9-2-.4 0-.5.4-.3 1.3zm-1.4-4.6v.4c.1-.1.1-.3 0-.4zm2.8 7.6c.1.1.1.2.2.3 0-.2 0-.3-.2-.3zm106.9-94.7h.2.2c-.2-.1-.3-.1-.4 0zm.4 7.9h-.2l.2.4c.1-.2.1-.3 0-.4zm1.5-6.9c-.1-.1-.3-.1-.5.2 0 .1.1.2.2.2s.3-.1.3-.4zm-118.2 8.4c0-.6-.1-1.1-.3-1.5s-.5-.8-.9-1.1c-.3-.3-.7-.4-1.2-.4l-15.5-.2c-.6 0-1.1-.3-1.6-.9s-.8-1.3-.8-2.2l.2-20.6c0-.7.2-1.3.5-1.7l.3-.3h-3.6c-5.8 0-10.5 4.9-10.2 10.7 2.1 34.3 14.2 66 33.3 92.1l-.2-73.9zM192.8 270c-.1.1-.1.2 0 .4s.2.2.3.1.1-.3 0-.4c-.1-.2-.2-.2-.3-.1zm.1-83.3v.4c.1.3.2.4.3.4a.76.76 0 0 0 .2-.4.76.76 0 0 0-.2-.4c0-.1-.2-.1-.3 0zm.3-13.2a.45.45 0 0 0-.5 0c-.2.1-.2.3-.1.6h.8c0-.2-.1-.4-.2-.6zm-59.3 97.8c.6-.6.4-1.1-.5-1.5-.3-.3-.7-.4-1-.2-.2.1-.1.5.5 1.1.5.5.8.7 1 .6zm213-10.4c-7.4 0-14-2.2-19.8-6.6-5.7-4.4-9.9-10-12.4-16.7s-3.2-13.6-2.1-20.7c.4-2.2 1.8-3.3 4-3.3h8.8c1.5 0 2.9.6 4.1 1.7 1.3 1.1 1.8 2.3 1.6 3.6-.7 6.9.5 12.8 3.6 17.6 3.1 4.9 7.2 7.3 12.2 7.3 3.2 0 5.9-.8 8-2.6 2.2-1.7 3.6-3.8 4.2-6.5.6-2.6.7-5.3.2-8.1s-1.8-5.4-4.1-7.8-5-4.1-8.4-5.3c-3.8-1.2-7.5-2.8-11.2-4.9-3.6-2-7-4.7-10.3-7.8-3.2-3.2-5.7-7-7.2-11.5-1.6-4.5-2-9.3-1.1-14.4 1.8-10.1 7-16.8 15.6-20.1h-48c1.4.6 2.7 1.3 4 2.3 3.9 2.7 7.1 6.4 9.6 10.9 2.5 4.6 4.7 9.8 6.5 15.7s2.9 12.2 3.3 18.7.5 13.1.1 19.6-1.5 12.8-3.3 18.7-4 11.2-6.7 15.7c-2.7 4.6-6 8.2-10.1 10.9s-8.6 4.1-13.6 4.1-9.5-1.4-13.6-4.1-7.4-6.4-10-10.9c-2.5-4.6-4.7-9.8-6.4-15.7s-2.7-12.1-2.9-18.7a160.44 160.44 0 0 1 .6-19.6c.6-6.5 1.9-12.8 3.8-18.7 2-5.9 4.3-11.2 6.9-15.7 2.7-4.6 6-8.2 10-10.9 1.3-.9 2.7-1.6 4.1-2.3h-50.6c4 1.7 7.7 4.5 10.9 8.4 5.6 6.9 9.3 15.5 11.1 26 .3 1.7.1 3.2-.6 4.5s-1.8 2-3 2h-4.3-4.3c-.5 0-1.1-.1-1.6-.4s-1-.7-1.4-1.2-.8-1.1-1-1.8c-.3-.7-.5-1.4-.6-2.2-.6-4.1-1.9-7.5-3.9-10.2s-4.5-3.8-7.6-3.1c-4.7.9-8.8 6.2-12.3 16-3.6 9.7-5.5 19.9-5.8 30.5-.2 8.1.2 15.6 1.1 22.4 1 6.8 2.6 12.5 4.9 17s5.2 6.8 8.6 6.8c3.2 0 5.9-2.1 8.2-6.3s4.2-9.3 5.7-15.3c.5-2.2 1.7-3.3 3.5-3.3h10.7c1.4 0 2.5.8 3.5 2.3s1.3 3.2 1.1 5c-.7 6.7-2.4 13.2-5 19.5s-6.2 11.8-10.7 16.4-9.4 6.9-14.7 6.9c-11.3 0-20-6.1-26.3-18.2-6.3-12.2-9.3-29.9-9.1-53.4.1-11.2 1.1-21.4 3.1-30.5s4.5-16.4 7.7-22.1c3.2-5.6 6.7-9.9 10.6-12.9 1.4-1.1 2.8-2 4.2-2.6h-49.6c.1.1.2.1.3.2.7.7 1.1 1.5 1.2 2.5L162 230l11.3 73.4c.1 1-.1 1.9-.5 2.5-.5.7-1.1 1-1.9 1h-12c-1.7-.1-2.9-1.2-3.4-3.3-.3-2-.9-4.8-1.7-8.4l-1.7-7.7c-.5-2-1.5-3.1-3.2-3.3h-14c-1.4-.1-2.2.7-2.4 2.4l-.7 5.6c-.2 2-.5 4.1-.9 6.4-.3 2.3-.6 4.2-.9 5.7 0 .2-.1.5-.1.7 23.8 14 51.1 22.4 80.4 23.7-5.2-20.2 24.8-47.5 48.1-22.8 0 0 .6-17.9 18.7-26.2 20-9.1 37.2 10.9 37.2 10.9s7.7-17.7 29.3-15.9c4.5-4.7 8.6-9.6 12.6-14.8-2.9.7-6 1-9.3 1zm-189.4 7.7c.1.4.2.5.4.3.1 0 .2-.1.2-.4s-.1-.4-.3-.4c-.3-.1-.4.1-.3.5zm39.3-92c0 .2.1.3.2.3s.2-.1.2-.3-.1-.3-.2-.3c-.2 0-.2.1-.2.3zM159.6 256c-.1-.3-.2-.6-.2-.9-.2.2-.1.5.2.9zm36-73.8c.2 0 .2-.1.2-.3s-.1-.3-.2-.3c-.2 0-.2.1-.2.3-.1.2 0 .3.2.3zM93.9 168.9c.1-.1.2-.3.2-.3 0-.1-.1-.2-.2-.3s-.2-.1-.3 0a1.76 1.76 0 0 0 .1.6c0 .1.1.1.2 0zm-3.4 14.6l.3.2a.76.76 0 0 0 .2-.4c.1-.1.1-.3.1-.3-.1-.1-.1-.1-.3-.1-.1.1-.2.3-.3.6zm0 2.2c-.1-.3-.3-.4-.5-.4s-.3.1-.3.4.1.5.2.7c.2 0 .4 0 .5-.1 0-.1.1-.3.1-.6zm-2.6 7.5c.2.6.7.3 1.4-.9.1-.1.2-.4.2-.7.2-.6.2-1-.2-1.1-.7-.4-1-.2-1 .7 0 .3-.1.7-.2 1.1-.1.3-.2.6-.2.9zm-.2 72.4c-.1.1-.1.2 0 .4s.3.3.9.3c.5 0 .8-.1.9-.4a.76.76 0 0 0 .2-.4c0-.1-.1-.2-.2-.2-.2-.3-.6-.3-1 0l-.8.3z"/><path d="M88.9 189.1c.3-.1.5-.2.6-.4s.1-.5.1-.8c-.1-.3-.2-.4-.4-.4-.1 0-.3.1-.4.3s-.3.4-.4.7c-.1.2-.1.4 0 .6 0 0 .2.1.5 0zm-1.8-.5c-.1.1-.1.3 0 .4s.2.2.3.2.2 0 .3-.1 0-.3-.3-.6c-.1-.1-.2-.1-.3.1zm-1.4 0c0 .1.1.2.2.2s.2-.1.2-.2-.1-.2-.2-.2c-.1-.1-.2 0-.2.2zm3.9-14.9c0-.1-.1-.2-.2-.2s-.2.1-.2.2.1.2.2.2c.2.1.2 0 .2-.2zm-.5 9.2c-.3.4-.4.7-.3.9s.3.3.5.2.4-.3.5-.6a.76.76 0 0 0 .2-.4.76.76 0 0 0-.2-.4c-.2-.2-.5-.1-.7.3z"/><ellipse cx="88" cy="166.9" rx=".3" ry=".2"/><path d="M90.4 180.6c-.4.1-.6.4-.6.9 0 .3.2.4.7.2.5-.1.7-.3.8-.3.1-.1 0-.2-.1-.3-.1-.5-.4-.7-.8-.5zm1 4.6c0 .1.1.2.2.2v-.4c-.2 0-.2.1-.2.2zm.3-6.6c-.2-.3-.4-.2-.5.2v.4c.1.3.3.3.4 0 .2-.2.2-.5.1-.6zm-1.4 11.7h-.2l.2.4v-.4zm-1 20.5c0 .2.1.3.2.3s.2-.1.2-.3-.1-.3-.2-.3-.2.1-.2.3zm1.9-.5c.1-.1.2-.3.2-.6s-.1-.4-.3-.4-.3.1-.3.3c-.1.2 0 .4.1.6s.2.2.3.1zm.5 58.9c-.1-.1-.3-.1-.4 0-.2.1-.1.3.1.6.3.4.5.4.5 0s-.1-.5-.2-.6zm.2-2.8c-.3.1-.7.3-1 .4-.7 0-1 .4-.9 1.1.1.3.6.2 1.5-.2.1-.1.2-.3.3-.4v-.9zm-.4-50.9v-1.3c-.3 0-.6.1-.7.2s-.1.4 0 .7c.2.3.4.4.7.4zm-.1 56.4c.1.1.3.1.5-.2v-.9c-.5.5-.7.9-.5 1.1zm-1.2-69.6c.3.4.6.5.7.2 0-.3-.2-.5-.7-.7-.2.2-.2.3 0 .5zm-6.3 8.4v2.9c.3 0 .5-.2.5-.7s-.1-.7-.2-.7-.1-.2 0-.7c-.1-.5-.2-.8-.3-.8z"/><path d="M84.7 224.4c.2.3.2.4 0 .4-.6 0-.7.4-.3 1.3.1.4.1.7 0 .9-.2.3-.3.4-.3.2v2.2c.5-.1.7-.1.7.2s-.1 1-.3 2c-.1.6-.2 1.2-.2 1.8 0 .3-.1.5-.2.7v19.5h.3c.1 0 .2.1.2.2s-.1.2-.2.2-.2-.1-.3-.2v2.2c.2.1.7.4 1.5.9.7.4 1.1.7 1.4.7l.5.2-.3.2c-.2.1-.3.4-.2.7s.3.4.5.4.4-.3.4-.9c.1-.6 0-.9-.1-.9-.1-.1-.2-.3-.2-.6s0-.5.1-.9.1-.8.2-1.3.2-.8.4-.8l.3.4c.1.3.1.6-.2.9s-.3.7.2 1.3c.3.3.5.7.3 1.1-.2.3-.3.8-.3 1.5s.1 1.2.3 1.3.4.1.6-.2.7-.3 1.4 0c.3 0 .7.1 1 .2v-1.3h-.2c-.6-.3-.6-.7 0-1.1h.2v-2.2c-.2.6-.6 1-1 1.3-.3.1-.5.4-.3.9-.1.3-.3.4-.5.4 0-.1 0-.6-.1-1.2-.1-.7 0-1.1.1-1.2.2 0 .4.1.5.2.3.1.6.1.7-.2.1-.1.2-.4.3-.7 0-.1 0-.2.1-.2s.1.1.3.2l-.2-19.7c-.5.1-.7 0-.7-.3 0-.4.1-.6.2-.6.2 0 .4-.1.5-.2v-4.9a1.4 1.4 0 0 1-.7.4c-.6.4-.9.7-1 .7s-.2-.2-.2-.7c0-1.2-.3-1.4-1-.7-.3.4-.6.6-.7.4-.1-.1-.1-.4.2-.7a.76.76 0 0 0 .2-.4c0-.1.2-.4.5-.9s.6-.7.8-.7.3-.1.4-.4.3-.4.5-.4.4-.1.5-.2.3-.2.5-.2v-9.5c-.2 0-.6-.3-1.2-.9-.7-.9-1-1.4-1-1.7s-.2-.5-.7-.9-.7-.7-.6-.9 0-.3-.1-.3-.3-.1-.6-.3-.6-.5-.9-.8-.4-.5-.4-.7c0-.1.1-.1.3 0s.4.1.5-.2c.2-.3.4-.4.5-.2.3.4.5.4.5 0 0-.1-.1-.4-.2-.7l.2-1.1.3.2c.1.3.4.4.8.3s.8-.3 1.2-.8c.4-.4.6-.8.5-1.2s.1-.6.6-.8v-1.3c-.2 0-.5.2-.9.7-.3.6-.5 1-.3 1.3v.4H90c-.2-.1-.3-.4-.3-.9s-.2-.5-.5-.2c-.2.1-.4.4-.5.7 0 .9-.2 1-.5.4l-.3-.9c0-.4-.2-.7-.5-.7-.3-.1-.5-.4-.5-.7-.1-.3-.1-.4.2-.2.3 0 .6-.1.9-.4.2-.1.5-.3.7-.4.1 0 .2-.1.3-.4s0-.5-.3-.7c-.1-.1-.2-.4-.2-.7 0-.4-.1-.8-.2-1.1-.1-.1-.1-.3 0-.3.1-.1.3-.2.5-.3.6 0 .9-.2.9-.7.2-.4.5-.9.9-1.3.5-.6.6-1 .5-1.1s-.3 0-.7.3c-.3.4-.5.7-.5 1 0 .1-.1.2-.3.2-.2-.1-.4-.1-.5.2-.2.3-.4.4-.5.4-.2-.1-.3-.7-.2-1.7s.3-1.4.5-1.4.7-.5 1.4-1.5l1.3-2 .2-.2v-3.3c-.2-.3-.5-.3-.9 0-.3.3-.4.5-.2.7l.3 1.3c.1.4-.5 1.5-1.8 3.1l-2.1 2.4c-.2.1-.4.3-.5.4-.2.3-.4.4-.5.2-.1-.1.2-.6.9-1.3.5-.4.8-1 1-1.5a4.49 4.49 0 0 0-.7-1.8c-.2-.1-.3-.5-.1-1s.2-1 .1-1.4c-.1-.3-.3-.4-.5-.4s-.4.2-.5.7c0 .3-.1.6-.2.8s-.2.6-.2 1-.1.6-.4.6c-.3-.1-.4.1-.4.6l-.2.7c0 .6-.1 1.2-.3 1.8a1.39 1.39 0 0 0-.2 1.1c.1.3.2.6.2.9 0 .1-.2.3-.5.4v1.1c.3-.4.5-.6.6-.6.1.1 0 .3-.1.8-.1.3-.1.7 0 1.1 0 .3-.2.7-.5 1.3v4.9c.1-.1.2-.1.3 0 .1.3.2.5.2.7 0 .3-.1.4-.2.4-.2 0-.3-.1-.3-.3v2c.2.1.4.3.5.4.1.3.3.5.7.7.1.9.1 1.5.1 2-.1.4-.1.7-.3.9-.2.3-.5.6-.7.9-.1 0-.2.1-.3.2v3.1c0-.3.1-.4.2-.4.1-.1.2-.4.2-.7-.1-.4-.1-.7.2-.9.5-.3.7-.3.8.1s-.1.8-.4 1.2c-.7.7-.7 1.2-.2 1.3.6.3.6.6.2.9-.2 0-.3.4-.3 1.2.1.8 0 1.2-.1 1.2-.2 0-.3-.4-.3-1.3 0-.7-.1-1.4-.2-2v6.2H84c.3.1.5.1.7.4zm5.8-5.5l-.3-.4c.1 0 .4.1.8.3s.6.4.7.6c.1.1-.1.5-.6 1.1-.6.7-1 1-1.2.7 0-.1.2-.4.5-.9.6-.8.7-1.3.1-1.4zm-2.9-16.4c0 .3-.1.4-.2.4s-.3-.2-.4-.6c-.2-.4-.2-.6-.1-.6.1-.1.3-.1.4 0 .2.3.3.5.3.8zm-.7-4.4c.1-.1.2-.2.3-.2s0 .1-.1.4c0 .3-.1.5-.3.7-.2 0-.3-.1-.3-.2l.4-.7zm-.5-4.8c.1-.1.2 0 .3.1s0 .3-.1.3c-.1.1-.2 0-.3-.1 0-.1 0-.2.1-.3zm-1.9 11.4c.2.3.2.6 0 .9a.76.76 0 0 1-.2.4c-.1 0-.2-.5-.3-1.4-.1-1 0-1.4.1-1.4.3-.4.5-.4.5.2l-.2.4c0 .3 0 .6.1.9zm0 47.3c.1-.1.1-.2.2-.2s.1.1.1.2-.1.2-.2.2c-.2.1-.2 0-.1-.2zm1.4 3.1c-.2.6-.6.7-1.2.2-.1-.1-.1-.3.2-.4.6-.4.8-1.1.7-2-.1-.6-.1-.9.2-.9.1 0 .2.4.3 1.1l-.2 2zm1.2-8.8a.76.76 0 0 1 .2-.4c.1-.1.2-.1.2.2-.1.4-.2.5-.4.2zm.2-7.3c.5 0 .7.3.7.9 0 .4-.1.7-.2.7s-.2-.1-.3-.2l-.2-1.4zm2 8.2c.9-.6 1.1-.4.7.4-.2.7-.5 1-.7.7 0-.1-.2-.2-.6-.1s-.6-.1-.7-.4c-.1-.4 0-.6.1-.8l.3.4c.2.3.5.2.9-.2zm-.7-1.6c0-.3.1-.4.3-.4s.3.1.3.4c.1.3.1.5 0 .7-.1.1-.3.1-.4 0-.3-.2-.3-.4-.2-.7zm-.7-9c-.1 0-.2-.2-.2-.6s.1-.6.2-.6.2.1.3.4c.1.5 0 .8-.3.8zm1.7 17.7c-.1 0-.2-.1-.2-.4s-.2-.6-.6-.9-.8-.4-1.1-.2c-.3.1-.4 0-.2-.4.3-.3.5-.7.3-1.1-.1-.6-.1-.9.2-.9.3-.1.6.1.7.9-.5.6-.3 1.2.5 1.8.3.3.5.6.5.9.1.1.1.3-.1.3zm.9-3.5c0 .2-.1.3-.3.3-.1 0-.2-.1-.3-.2.1-.3.3-.4.4-.4s.2.1.2.3zm-.5-9.4c.2 0 .3 0 .3.1v.8c0 .9-.2 1-.7.2-.3-.4-.4-.7-.3-.8.3 0 .5-.1.7-.3zm-.5-1.1c.1.3.1.4 0 .4-.2-.1-.3-.4-.3-.7 0 .1.2.2.3.3zm-1.2-9.3c.7 0 1 .2 1 .7 0 .1-.2.1-.5 0-.2.1-.3.3-.3.4-.1.1-.3.2-.6.1s-.5.1-.6.4c-.1.4-.2.5-.3.3v-.9c0-.3-.1-.6-.3-.9-.6-1-.6-1.7-.2-2 .1-.1.5.2 1 1.1.2.6.4.8.8.8zm-1.2-3.2v-.3c0-.1.1-.3.3-.4l.2.2c-.1.3-.2.4-.3.4-.2.2-.2.2-.2.1zm1.5-1c-.1.1-.2.2-.3.2s-.1-.1-.1-.2.1-.2.3-.2.2.1.1.2zm-2.4-11.5c.1-.4.2-1 .2-1.5.1-.1.2-.2.3-.2.1.3.3.4.5.4.3.1.5.4.5.9 0 .3 0 .5.1.6s.1 0 .3-.1c.2 0 .5.1.7.4s.3.6.3.8c-.1.2-.3.3-.8.3-1.4-.1-2.1-.3-2.2-.3-.1-.1-.1-.5.1-1.3zm-.8 25.5c.2 0 .5.1.7.4a.76.76 0 0 1-.4.2c-.2 0-.3-.1-.4-.2s0-.3.1-.4zm-.1 5.5c.3 0 .4-.3.4-.9 0-.4-.1-.8-.3-1.1-.2-.4-.2-.7 0-.9.1 0 .2.1.3.2.2.3.3 1.4.3 3.3.1.9.3 1.4.6 1.4.3.1.4.2.4.3s-.2.2-.7.2c-.2 0-.5-.2-.8-.6s-.4-.7-.4-1c-.1-.3-.2-.5-.2-.7 0-.1.1-.2.4-.2zm.3 3.2l.6.3c.2.1.3.3.3.4-.1.1-.1.3 0 .4.1.3.2.5.2.7-.2.6-.5.7-.7.2v-.7c-.1-.4-.4-.7-.9-.7s-.7-.1-.7-.4c.1-.3.3-.4.5-.4.2.1.4.1.7.2zm-1.2-27.1c.1 0 .2.1.2.3s-.1.4-.2.6c0 .1 0 .2-.1.1s-.1-.2-.1-.3c0-.5.1-.7.2-.7zm-.5-41.9c-.2-.1-.4-.1-.5-.1.2.7.3 1.5.3 2.4.5.3.7.1.7-.7 0-.4.1-.7.3-.9.5-.1.3-.4-.3-.7-.1.1-.3.1-.5 0zm5 22.9c-.2.4-.2.8-.1 1.1s.3.3.7 0a1.91 1.91 0 0 0 0-1.8c-.3 0-.4.2-.6.7zm-5-10v.7c.3 0 .5-.1.3-.2 0-.3-.1-.5-.3-.5zm7.6 12.9c-.2 0-.3.1-.3.2s.1.3.3.4v-.6zm35.3 60.1c.1.4.2.5.4.5.3-.1.3-.5-.2-1.1-.1 0-.2.2-.2.6zm84.7-101.9c.2 0 .3-.1.4-.3s.1-.5.1-1c-.1-.5-.2-.7-.3-.8-.2-.1-.2-.3-.2-.7.1-.4 0-.6-.2-.6-.2-.1-.4-.3-.5-.4-.4-.1-.9-.2-1.3-.2v.2c0 .8.4 1.4 1.1 1.8.3.3.5.5.5.8v.8c.1.3.2.4.4.4zm68.8 3.3l-.2.3c.1 0 .3.1.5.2 0-.3-.1-.5-.3-.5zm3.8 1.6c-.1.2-.1.4 0 .6.2.1.4 0 .5-.3 0-.2-.1-.4-.2-.4-.1-.2-.2-.1-.3.1zm-80.3.8c.1.3.3.3.5 0 .1-.1.2-.3.2-.6-.1-.3-.3-.3-.5-.2-.2.3-.2.5-.2.8zm2.2-1.6c-.3 0-.5.3-.5 1 0 .4-.1.7-.2 1v.6c.4-.1.7-.3 1-.4.1-.4.2-.7.2-1 0-.8-.2-1.2-.5-1.2zm2.3-.3c-.1.1 0 .2.1.3.2.4.3.3.3-.2 0-.1-.1-.2-.2-.2s-.1.1-.2.1zm-.9 0c.1-.1-.1-.4-.4-.9s-.4-1-.2-1.4.2-.7.1-1c-.1-.4-.1-.7 0-1 .2-.1.3-.3.2-.6s-.1-.5.1-.7a.47.47 0 0 0 .1-.6c-.1-.2-.2-.3-.3-.3-.5 0-.8-.3-.8-.8 0-.1.2-.1.6 0 .4 0 .7 0 .8-.1s.1-.3 0-.7h-.6c-.7 0-1.5.1-2.2.2v.8c0 .8-.1 1.2-.3 1.2s-.3.1-.3.3.1.4.2.5c.3.3.6.4 1 .4h.6v1.2c0 .5.1 1 .3 1.6.1.3.2.6.2 1s.2.7.5.8c.1.2.3.2.4.1zm2-1.4c0 .3.1.4.2.4a.76.76 0 0 0 .4-.2c.1-.5.2-1 .2-1.4 0-.5 0-.8-.1-1-.1-.1-.2-.2-.4-.2s-.4-.1-.6-.3-.5-.2-.7-.1c-.3.1-.4.3-.4.6s.1.4.2.5c.2.1.2.2.2.5s.2.5.5.6c.2 0 .3.2.5.6zm61.3.7c0-.1-.1-.2-.2-.2-.2 0-.2.1-.2.2s.1.2.2.2.2-.1.2-.2zm17.8 6.6c-.2 0-.6.2-1.1.7.2.2.4.4.5.7 0-.1.1-.3.3-.7.6-.5.7-.7.3-.7z"/><path d="M288.1 175.7l-.2-.2c.1.3.3.6.5.8 0-.4-.1-.6-.3-.6zm-1.1-4c.1.2.2.3.3.3.2 0 .3-.1.3-.3.1-.2 0-.4-.2-.5s-.3-.1-.4 0v.5zm2.2 5.3l-.3.3c.2.3.3.6.3.8.3-.1.5-.4.6-.8s.1-.7 0-.7c-.1-.1-.3.1-.6.4zm-29.5 2.5c0 .3.3.4 1 .2.1-.2.2-.5.3-.8-.3-.1-.8.1-1.3.6zM150.5 197l-.2-.4c-.1.3-.1.7.2 1.1v-.7zm63.5-32.1c0-.1-.1-.2-.2-.2s-.2.1-.2.2.1.2.2.2h.2v-.2zm-.5 4.9h.3c-.1-.1-.2-.1-.3 0zm.3-3c0-.2-.1-.3-.2-.3-.2 0-.3.1-.4.3s-.2.4-.2.5c.1.3.3.3.6 0 .2-.2.2-.3.2-.5zm.2-4.3c-.1-.3-.4-.2-.8.2-.6.5-.7 1-.3 1.6.3.4.5.3.6-.4 0-.3.1-.5.3-.8.2-.2.3-.4.2-.6zm-64 39.3h.3l-.2-.2-.1.2zm52.7-39.8c-.2.1-.3.3-.3.6-.1.3 0 .4.2.4.3 0 .5-.1.6-.3s.1-.4-.2-.7c0-.2-.1-.2-.3 0zm10.4 6.8c.2-.1.2-.3.2-.4s-.1-.2-.2-.3c-.2-.1-.3 0-.3.2-.1.2-.1.4 0 .5 0 .2.1.2.3 0zm-80.5 31.9c0-.4-.2-.4-.5 0-.1.1-.1.3-.1.3.1.1.1.1.3.1s.3-.1.3-.4zm72.3-35l.2-.6c-.1-.3-.2-.4-.3-.4-.3.1-.4.6-.3 1.4 0 .1.2 0 .4-.4zm4.1-2.4c.3-.1.5-.3.5-.5a.55.55 0 0 0-.3-.5c-.3-.1-.5-.3-.5-.6-.1-.9-.4-1-1-.4-.4.5-.4 1 .2 1.6.3.6.7.7 1.1.4zm3.5 3.4c.3-.3.4-.6.2-1-.3-1-.6-1.2-1-.6-.2.1-.3.4-.3.9s.1.8.2.9c.2.4.5.3.9-.2zm-8.2 1.4c0-.2-.1-.3-.2-.3s-.2.1-.2.3.1.3.2.3.2-.1.2-.3zm5.4 1.1c.3.4.6.5.8.2 0-.3-.3-.5-.8-.8-.6 0-.6.2 0 .6zm72.5 90.3c-.5 0-.5.2.2.5.4.3.7.4.8.2.1-.1 0-.2-.2-.4-.4-.3-.6-.3-.8-.3zm59.5-58c-.1 0-.3.1-.5.4s-.5.6-.8.8c-.2 0-.3.2-.3.6s.1.6.3.6.4 0 .6-.1.3-.2.6-.2.5-.1.5-.4c.1-.3.1-.5-.1-.5s-.2-.2-.2-.5c0-.5 0-.7-.1-.7zm-.8 1.8c-.1 0-.2 0-.2-.1s.1-.1.2-.1.2.1.2.1c-.1.1-.1.1-.2.1zm14.5 7.7c-.1.2-.2.4-.3.5.2.2.5.4.8.6.1-.2.2-.4.2-.6.3-.4.4-.7.2-.8-.2-.2-.5-.1-.9.3zm-16.6-8.1c-.1.1-.2.2-.2.3 0 .2.1.3.2.3s.3-.1.3-.2c.1-.2.1-.3.1-.4 0-.2-.2-.2-.4 0zm-15.5-16.8v.1c0 .1.1.1.2.1l.2-.1c0-.1-.1-.1-.2-.1h-.2zm12.5 13.6c.3-.3.5-.5.4-.6s-.3 0-.7.1c-.6.3-.9.6-.7.8.1.2.4.1 1-.3zm-45.8-28c-.4-.4-.7-.2-.8.7a4.44 4.44 0 0 0-.2 1.3c-.1.3-.1.7 0 1 .1.1.2.3.2.5-.1.1-.1.2 0 .3s.3.1.6.1c.3-.1.4-.1.4-.2-.1-.1-.2-.3-.2-.5-.2-.2-.2-.4 0-.7.1-.1.1-.3-.1-.6s-.1-.6.1-1.1c.2-.4.2-.7 0-.8zm74.8 68.7v-.6c-.1 0-.3.1-.5.2s-.3.3-.2.4c.1.2.4.2.7 0zM349 204.7c.4-.1.6-.2.6-.4s-.2-.3-.6-.3-.7.1-.8.1c-.1.1-.1.3 0 .5.1.1.4.2.8.1zm1.6-.2c.1 0 .2-.1.2-.2-.2-.1-.5-.2-.8-.5 0 .2.1.4.3.6.1.1.2.1.3.1z"/><path d="M336.1 194.9c-.2-.2-.4-.5-.6-.8-.2.3-.5.5-.8.6-.1 0-.4-.2-1-.8-.5-.5-.9-.8-1-.9 0-.2-.1-.3-.2-.3s-.2 0-.2.1c-.1.1-.1.1-.1.2 0 .3-.2.4-.6.3-.6-.1-.6-.4.2-.9.4-.4.9-.7 1.4-.9l-.6-1.1c-.2 0-.4.1-.6.2-.4.1-.9.1-1.4.1a4.53 4.53 0 0 0-1.6.3c-.4.3-.7.4-.9.2-.2-.1-.2-.5-.1-1 0-.6-.1-1-.2-1.2a8.11 8.11 0 0 1-.3-1.1l.2-.9c.1 0 .2.3.3.9 0 .4.1.6.2.7s.3.1.6.1c.8.1 1.3-.2 1.3-.8 0-.3.3-.6 1-.9-.1-.3-.2-.6-.3-1.1l-.8.5c-.2.1-.4.3-.6.5-.2.3-.3.3-.5.1s-.2-.4-.2-.6c0-.3-.1-.5-.3-.6s-.5 0-.8.1c-.1-.4-.1-.8 0-1.2.1-.7.1-1.1-.2-1.4-.3-.2-.6-.9-.8-2.3 0-.4-.1-.8-.3-1.2-.1-.2-.2-.3-.2-.5l-.3-1.2c-.3-.4-.5-.7-.6-1-.1-.2-.2-.3-.4-.1s-.2.5 0 .9c.1.3.2.7.2 1s.1.5.3.5c.2.1.3.7.4 1.8.1 1.2.2 1.9.4 2.1.2.3.3.7.2 1.4s-.1 1.1-.2 1.3c-.2.3-.3.6-.2.8.1.3.1.6-.2.9-.4.8-.4 1.6 0 2.4l.2.9c0 .1-.2.1-.5.1 1.2 2 2.6 3.9 4.3 5.7.6.7 1.4 1.4 2.2 2.1l.3-.3c.6-.5.7-.8.2-.8-.2 0-.3 0-.3-.2.1-.2.4-.1.8.2.1.2.3.3.6.4s.5 0 .6-.2c.2-.3.5-.3.8-.1.3 0 .6-.2 1-.5l.5-.5.8.3c.5.3.9.4 1.1.4l.6.3c.2.1.3.3.4.6-.2.3-.5.5-.8.6-.5.3-.9.4-1.2.2-.3-.1-.7-.1-1.2.2-1.1.5-1.8.6-2.2.1 0-.1 0-.2.1-.5.1-.2.1-.3 0-.3h-.6c-.3 0-.6.1-.8.1h-.2c.7.7 1.6 1.4 2.5 2 .1 0 .2 0 .3-.1a1.69 1.69 0 0 1 1-.3c.2.1.3.1.4-.1.1-.1.3-.2.9-.2.4.1.8.1 1.3-.1.3-.1.6-.1.8 0 .3.2.6.2 1 0 .4-.3.9-.2 1.4.1.1.2.3.4.6.5.1 0 .2.1.2.5 0 .3 0 .6-.1.9s-.1.5-.2.6l-.6.6c-.6.6-1.3.7-1.9.3-.2-.2-.4-.2-.5-.2-.1.1-.1.2.1.3s.2.2.2.3c.6.4 1.3.8 2.1 1.1.1-.1.2-.2.2-.3-.1-.3-.1-.5.2-.6.4-.2.7-.2.7.1.1.3-.1.5-.4.8l-.3.3 5.4 2.1c.1-.1.2-.1.3-.1.6-.5.6-.8 0-.9l-.2-.3c.4.1.7.2.9.3a1.38 1.38 0 0 1 .4.3c0 .1-.2.4-.5.8-.1.1-.2.2-.3.2l.3.1c1.4.4 2.7 1 4 1.7.7-.3 1.3-.6 1.6-1.1 0-.1.2-.1.5-.1.3.1.4.2.3.5 0 .2.1.4.2.4.1.1.3.1.5 0 .2-.3.3-.6.2-.9v-.6h.8c.4 0 .8 0 1.1-.1.1-.1.2-.2.3-.2.3 0 .2.4-.3 1.1l-.3.3c-.6.6-.6 1.1 0 1.5.2.1.2.3-.2.6-.5.4-.6.7-.3.9.3 0 .6-.1.8-.3.2-.3.4-.4.5-.3l-.2.4-.3.6c0 .1-.1.2-.2.3 3.9 3.3 6.5 7.4 7.6 12.3a.47.47 0 0 1 .6-.1c.2 0 .5-.2.7-.7.3-.5.6-.7.9-.7s.5-.2.5-.6.2-.6.5-.6a.55.55 0 0 0 .5-.3c.1-.1.2-.1.4-.1s.4-.2.8-.6.7-.6.9-.6.4 0 .5-.2c0-.1.1-.1.2-.1l-.3-1.2c-.1.3-.3.2-.6-.3-.5-.8-.9-.8-1 0-.1.5-.2.8-.4.8s-.2-.1-.2-.2-.1-.2-.3-.2v.3c.2.1.3.4.2.8s-.1.6-.2.6-.2-.1-.2-.3c0-.1-.1-.2-.2-.4-.2-.1-.3-.2-.3-.5s-.1-.5-.3-.6c-.2 0-.3.1-.2.5.1.3.1.6.2.9s.1.5.2.6c0 .3-.2.6-.5.9-.6.7-1 .8-1.1.1-.2-.2-.4-.3-.6-.5-.3-.1-.4-.3-.2-.6.3-.5.4-.8.2-.9s-.2-.2 0-.2.4.1.6.2.3.1.4 0c.4-.3.4-.5-.2-.8s-1-.8-1-1.7c-.1-.2.2-.4.9-.8.7-.3 1.1-.4 1.2-.3.1.2.1.4 0 .6-.2.4-.5.6-.8.4a.47.47 0 0 0-.6.1c-.2.2-.2.3-.2.5.1.2.3.3.6.3s.6 0 1-.1c.1-.1.3-.2.5-.2s.3-.3.3-.8a1 1 0 0 1 .6-1c.2-.1.5-.2.8-.3-.7-1.4-1.7-2.6-2.9-3.8-.1.1-.2.1-.2.1-.1 0-.1-.1-.2-.2v-.1c-.3-.4-.6-.7-1-.9a42.67 42.67 0 0 0-5.1-3c0 .2-.1.4-.2.5-.3.3-.3.6 0 .8.1.1.3.1.5-.1.4-.1.7 0 .8.3l-.6.3c-.4.2-.7.5-.8.9-.1.5-.3.7-.5.4-.3-.3-.3-.7 0-1.2.2-.2.3-.4.3-.8-.1-.2-.1-.4 0-.6s0-.3-.3-.5a.9.9 0 0 1-.6-.6c-.9-.5-2.1-1.1-3.8-2-.6-.3-1.3-.6-1.9-.9h-.5c-.4-.2-.9-.4-1.3-.6-.1.1-.2.2-.2.4-.1.1-.1.3-.2.4-.2.3-.5.1-.8-.5 0-.2-.1-.2-.3-.1-.6.4-1 .6-1.2.6s-.5-.2-1-.6c-.7-.6-1.1-1-1.1-1.1s-.2-.3-.6-.6c-.4-.2-.5-.5-.5-.6.1-.1 0-.2-.2-.2-.1 0-.3-.1-.6-.2s-.5-.3-.8-.5-.4-.3-.4-.5c0-.1.1-.1.3-.1.2.1.4 0 .5-.1-1-.5-1.9-1.1-2.7-1.7v.1c-.2-.1-.3-.2-.3-.3-1.1-.7-2-1.4-2.9-2.1-.4 0-.6-.1-.6-.3v-.1c-.2-.2-.4-.3-.5-.5h-.3c-.5-.1-1-.3-1.4-.6-.1-.1-.1-.2 0-.3 0 .6.1.5.2.4zm-8.9-3.6c-.1.3-.1.4-.2.4s-.2-.2-.2-.5.1-.6.2-.7.2 0 .2.1c.1.2.1.4 0 .7zm1.6 4.1c-.1 0-.2 0-.2-.2 0-.1.1-.1.2-.1s.2.1.2.1c-.1.1-.1.2-.2.2zm2.5 2.1c0-.1.2-.2.5-.3l.3.3c-.3.3-.6.3-.8 0zm.2-1.5c-.2-.1-.3-.2-.3-.4 0-.1.1-.3.3-.4.2 0 .5.1.7.2.3.1.4.3.4.5s-.4.2-1.1.1zm36.9 19.8c.2 0 .2.1.2.2s0 .1-.1.1-.1 0-.2-.1c-.1-.2-.1-.2.1-.2zm-1.9-.8c.3.1.5.3.6.5-.2.2-.4.2-.6 0-.3-.3-.3-.5 0-.5zm-1.1 7.9h.4c.1.1 0 .2-.1.4-.3.4-.5.4-.5 0-.1-.2 0-.3.2-.4zm-3.8-11.6c.3-.1.5 0 .6.1-.1.1-.3.1-.5.1-.3 0-.3-.1-.1-.2zm-2.1 1.9c.1-.1.2-.2.3-.2s.2.1.2.2c.1.1 0 .1-.1.1 0 .5-.2.6-.5.3 0-.2 0-.3.1-.4zm-8.1-7.2c.2-.1.4-.2.5-.5.2-.1.3-.1.3 0 .2.2.4.3.6.3.2.1.3.2.2.4-.1.1-.3.2-.8.1-.5 0-.8-.1-.9-.2 0 .1 0 0 .1-.1zm-7.5-1.3c.1-.3.1-.6 0-1 .2-.1.4-.2.5-.2.1.1.3.2.5.3.3.1.5.3.5.6 0 .2 0 .3.1.4s.1 0 .2-.1c.2 0 .4.1.6.3s.3.4.2.5c-.1.2-.2.2-.6.2-1.4-.1-2.1-.2-2.2-.2s0-.3.2-.8zm-3.7-4.7c.1-.1.1-.2.2-.2s.1.1.1.2c-.1.1-.1.1-.2.1-.2.1-.2 0-.1-.1zm-5.1-2.5c-.9.4-1.6.4-2.2 0-.2-.1-.2-.2.2-.3.3 0 .5-.2.6-.5 0-.3.1-.5.2-.5s.4.1 1 .4c.5.3.8.4.8.5-.2.2-.4.3-.6.4z"/><path d="M372.4 224.2c-.2.2-.4.3-.6.3s-.3.1-.3.5c0 .3-.1.5-.2.5-.1.1-.3 0-.5-.2-.1-.1-.3-.2-.5-.2s-.3-.2-.4-.5c-.1-.2 0-.4.2-.5.1-.1.1-.3 0-.6-.1 0-.2.2-.3.5-.1.2-.3.3-.6.3-.1 0-.2.1-.3.3.3.2.5.6.6 1.2-.2 0-.3.2-.3.6 0 .2 0 .3-.1.4s-.1.1-.2.1c-.2-.1-.4 0-.6.3s-.3.4-.6.3c-.4-.1-.9-.1-1.3-.1s-.8 0-1.1-.1c.1.6.2 1.2.2 1.8.2-.1.4-.1.6 0 .3 0 .4.1.2.2-.2.2-.4.2-.7.1h-.2c.1 1.4.1 2.8 0 4.2h.2c.4-.1.7-.1.7.1.1.1 0 .4-.2.7-.2.5-.3 1-.3 1.4s-.1.8-.2 1.2c-.1.1-.2.4-.3.8-.1.3-.1.6.2.9l.6.3c.4 0 .6-.4.5-1.2 0-.3.1-.5.2-.5s.2 0 .4.2.3.4.6.4c.8-.2 1.7-.4 2.5-.8.1-.1.4 0 .6 0l1.5-2.9c0-.2.1-.5.1-.7 0 .1-.1.2-.2.3-.2.5-.5.8-.9.8-.4.1-.6.2-.7.4 0 .5-.3.8-1 .9-.2.1-.5.1-.8.1l-.9.4c-.4.1-.7.2-.9.2-.2.1-.4 0-.6-.4-.2-.3-.1-.6.1-.7.1-.2.2-.3.2-.5-.1-.2.1-.5.5-.8.4-.4 1.3-.6 2.7-.6 1 0 1.5 0 1.7-.1.2 0 .2-.2.2-.4 0-.3-.2-.4-.5-.3-.1 0-.2 0-.2-.1-.1 0-.1-.1-.1-.2.1-.1.3-.2.6-.2s.5.1.7.2c0 .1.1.1.2.1v-.9c-.1 0-.2-.1-.3-.4-.2-.4-.1-.6.3-.8h.2v-2.1h-.2-.5l.5-.5c.1-1.2 0-2.4-.2-3.7zm-4.6 6.1c-.4.3-.7.5-1 .5-.2 0-.4.1-.5.1-.2.2-.4.3-.5.1-.1-.3.1-.6.5-.9h.4c.2 0 .4 0 .7-.1.3 0 .5-.2.5-.4.2-.4.4-.5.5-.5.1.1.2.2.2.3-.1.4-.4.6-.8.9zm1.3 1.2c0 .1-.1.1-.3.1-.1 0-.2 0-.2-.1s.1-.2.2-.5c.2-.2.4-.2.5 0 0 .2 0 .3-.2.5zm1.1-2.8c-.4.3-.8.3-1.1 0-.2-.3-.3-.5-.2-.5s.3 0 .7.1l.8.1-.2.3zm1.7-2.1c-.1 0-.2-.1-.4-.2s-.2-.3-.1-.4.2-.1.4 0 .2.3.2.5c.1 0 0 .1-.1.1zm-47.9-50c0 .1.1.2.2.2.2.1.3 0 .4-.2.1 0 .1-.2-.2-.5-.2-.3-.4-.6-.6-.7s-.3-.1-.3 0c-.1.1 0 .3.1.4l.4.8z"/><path d="M366 226.5c.1 0 .2-.1.2-.3s-.1-.2-.2-.2c-.2 0-.3.1-.3.1-.1.1 0 .2.1.3 0 .1.1.2.2.1zm2 .2c0-.1.2-.3.5-.6.5-.5.5-.8 0-1.1a.55.55 0 0 0-.5.3c0 .3-.2.4-.5.3-.2 0-.3 0-.4.1s-.1.2-.1.5c0 .4.2.6.5.6.3.1.5 0 .5-.1zm-37.3-49.6c-.1.1-.2.2-.2.3-.1.1-.1.2-.1.3.1 0 .2.1.2.2 0-.4.1-.6.1-.8zm-45.7-5.7v.2c.1.2.3.4.5.7.2-.2.4-.3.5-.3s.3-.2.5-.5.3-.6.3-.8c0-.8-.4-.8-1.1 0a1.21 1.21 0 0 0-.7.7zm49.4 22.2c.2 0 .2 0 .2-.2-.1-.2-.2-.3-.3-.5-.2.2-.3.4-.2.5s.2.2.3.2zm-49-29.9c-.2.2-.4.5-.5.8 0 .1 0 .2.1.2.1.1.1.1.2.1.2 0 .4-.2.6-.7.2-.4.2-.7.1-.9s-.3 0-.5.5zm38.6 24c.1-.1.1-.2 0-.3s-.2-.1-.3-.1c0 .2.1.4.2.6-.1-.1 0-.2.1-.2zm-47.7-14.2c-3.9 0-7.3 2.7-10 8-2.8 5.3-4.5 11.8-5.3 19.4s-1 15.3-.6 22.9 1.8 14.1 4.3 19.4 5.6 8 9.3 8c4.7 0 8.4-2.7 11.2-8s4.4-11.8 4.8-19.4a146.36 146.36 0 0 0-.6-22.9c-.8-7.6-2.4-14.1-4.9-19.4s-5.3-8-8.2-8z"/><path d="M287.1 169.4c0 .6.5.3 1.6-.8l.5-.8c.2-.4.4-.7.5-.7.2 0 .3-.2.3-.5l-.2-.2c-.1 0-.2.1-.3.2-.2.3-.4.4-.6.3-.3-.1-.6 0-.9.2-.3.3-.3.5-.2.7.1.3 0 .7-.3 1-.2.3-.3.4-.4.6zm37.7 20h-.5l.3.3c.2-.1.3-.2.2-.3zm2.4-9.6c.1-.2.1-.2.1-.3-.1 0-.2 0-.4.1v.1c.1.3.2.3.3.1zm-2.8 5c.1 0 .1-.1.1-.2-.1 0-.3.1-.5.1l.2.2c.1 0 .1 0 .2-.1zm4.8-6.2c-.2 0-.3.1-.3.3l.2.3a.55.55 0 0 0 .5-.3c.1-.3 0-.4-.4-.3zm.4 7c.2 0 .2-.1.2-.5 0-.6-.3-.6-.8 0-.4.5-.5.9-.3 1.2.2.2.4.3.6.2s.2-.2.1-.5c0-.2.1-.4.2-.4zm-1.2-5.1c-.1.4-.3.8-.6 1.2-.3.5-.4.8-.3.9.2.5.5.5 1 0 .2-.3.3-.5.3-.8s.1-.6.2-.9c.2-.4.3-.6.2-.8-.5-.5-.8-.4-.8.4zm-120.8-15.1c0-.2-.1-.4-.2-.5-.1 0-.2 0-.2.1v.3.3c0 .1.1.1.2.1s.2-.1.2-.3zm-78.9 60.9c.1.4.1.5.3.3.5 0 .6-.4.5-1.1 0-.1-.1-.3-.3-.3-.2-.1-.3 0-.4.2s-.1.5-.1.9zm2-19.5l-.2 1.1c.1.1.2.1.3 0 .3-.5.2-.8-.1-1.1zm-2.1 14.1c0 .1-.1.4-.2.7.1 0 .2-.1.3-.2.1-.3.1-.5-.1-.5zm-1.2 7.9l-.5 4.4c0 .1-.1.2-.2.2l-.2 1.3c.5.1.9.1 1.2 0 .8 0 1.2.1 1.2.2.2.1.5.2.7.2a1.08 1.08 0 0 1 .7.3c.2.2.6.3 1.2.3l.2-1.3c-.5-.1-.9-.3-1.4-.4-.3-.3-.7-.4-1-.4-.5 0-.9-.4-1.4-1.1-.5-1-.5-1.9-.2-2.6.2-.5.1-.8-.3-1.1zm2.1 18.3c-.1.1-.1.3-.1.4.1.1.1.2.3.2l.2-.2v-.2c-.2-.3-.3-.3-.4-.2zm.7-2.2c-.2 0-.5.1-.9.2-.5.1-.3.5.3 1.1.1 0 .2.1.3.2l.3-1.5zm-.9 17.7c-.1-.3-.2-.5-.3-.7-.1.6 0 .8.3.7zm-3.2-24l2.1.7c.2 0 .4.1.6.3s.3.5.3.9.1.6.3.8c.3.1.5.4.5.9.1.3.3.4.5.4h.2l.2-.2a.76.76 0 0 1-.2-.4c-.1-.4-.3-.8-.5-1.1v-.3-.3c.1-.1.4-.1.9.2l.2-1.3c-.1 0-.2-.1-.3-.2-.3-.1-.6-.4-.9-.7-.5-1.2-.9-1.4-1.2-.7-.5.7-1.1.7-1.9-.2-.1-.1-.2-.3-.3-.4-.3.4-.4 1-.5 1.6zm-4.6 54.5c.2.1.4.1.5-.2s.1-.5.1-.7c-.1-.1-.3-.1-.8 0-.2.3-.2.6.2.9zm-1.1 2.6c-.1-1.5-.5-1.9-1-1.3-.2.1-.2.6 0 1.3.5.4.8.4 1 0z"/><path d="M121.8 278.5c.2-.4.2-.8 0-1s-.4-.3-.5-.2-.1.4-.1.9c.1.5.1.8.3 1l.3-.7zm.4 17.2c.1.4.2.7.4.9.2.1.3.4.3.7s.1.4.3.4.3-.1.4-.4c.5-.6.3-1.2-.5-2-.3-.4-.6-.6-.8-.4-.1.1-.1.4-.1.8zm26.8-85c-.1-.1-.4-.2-.8-.1s-.7.2-.8.3c0 .1-.1.2-.3.2-.3-.3-1.2-.1-2.6.4-.5.3-.9.3-1.2 0-1-.3-1.7-.3-1.9 0-.3.4-.3.7.2.7.3.1.7.3 1 .4s1.8.1 4.3-.2c2.7-.3 4.7-.7 5.8-1.1-.1-.1-.2-.4-.2-.9 0-.3-.1-.5-.2-.7a4.55 4.55 0 0 1-.9.7c-.1.1-.5.3-1.3.3-.6.2-1 .1-1.1 0zm-24.3 45.1l-.3.2c.1 0 .2 0 .3-.2zm3.7-1.6c.1-.1.1-.3.1-.7s-.1-.6-.2-.7-.2 0-.3.3c-.2.4-.2.7 0 .9s.3.3.4.2zm3.2 20.8c.3-.4.4-.8.2-1.1-.3-.7-.6-.7-.7.2-.1.7-.1 1.2 0 1.3l.5-.4zm-.8-3.3c.2 0 .3-.1.4-.2.2-.3.3-.5.3-.8-.1-.2-.2-.4-.3-.4-.2-.1-.1-.3.1-.8.3-.6.3-1.2 0-1.7-.2-.3-.2-.7.2-1.3-.2-.3-.5-.6-.7-.9-.2-.4-.5-.9-.9-1.5v.2c0 .3-.1.6-.2.9-.1.4 0 .7.3.9.2.3.4.7.5 1.1s.1.8-.2 1.1c-.2.4-.5.7-.7.9-.2.1-.2.4.2.9.2.4.4.9.5 1.3.2.2.3.3.5.3zm-.5 2.3c.1-.1.1-.2.1-.3 0-.3 0-.5-.1-.5-.1-.1-.1-.1-.3-.1-.1 0-.3.1-.5.2-.1.3-.1.5 0 .7.1.1.3.2.5.2.1-.1.2-.1.3-.2z"/><path d="M132.1 272.8c-.1-.1-.3-.2-.5-.2-.1.1-.1.3.2.4.1 0 .3 0 .3-.2zm.1-5.4c-.2-.1-.4-.3-.5-.4v.2c-.2.1-.3.3-.1.4s.3.1.4 0l.2-.2zm-6.5-26.4v.7a.76.76 0 0 0 .2-.4c0-.2-.1-.3-.2-.3zm2.3 2.6c-.2 0-.4-.1-.6-.3s-.3-.3-.4-.1c-.1.1-.1.4-.1.7.1.3.1.5.3.7.2.1.5.1.9-.2 0-.4 0-.6-.1-.8zm8.2 29.4c.1 0 .3-.1.4-.3.2-.2.3-.4.3-.5s-.1-.2-.3-.2-.4.1-.5.2c-.4.4-.4.7.1.8zm-7.6 6.1c-.1-.3-.3-.3-.5 0s-.3.7-.2 1.1c.3-.3.5-.6.7-1.1zm64.4-3.4c.2.2.3.2.5.1s.2-.3 0-.5-.3-.2-.5-.1c-.1.1-.1.3 0 .5zM125.4 244c0 .1-.1.4-.2.9.2.1.4.2.5.1s.2-.3.2-.5a.76.76 0 0 0-.2-.4c-.1-.2-.2-.2-.3-.1zm.3 20.9c0 .2.1.4.4.4.3.1.5 0 .5-.2.1-.2 0-.4-.1-.5s-.3-.1-.5 0c-.2-.1-.3 0-.3.3zm.5-11c.1 0 .2-.1.2-.2s-.1-.2-.2-.2-.2.1-.2.2c.1.1.1.2.2.2zM124 265c.2-.6.1-.9-.3-.9-.2.1-.5.1-.7 0-.1-.1-.2-.2-.3-.2-.1.4-.2.7-.2.9.1 0 .2.1.3.2.6.3 1 .3 1.2 0zm31.5 9.1c.3-1 .2-1.5-.5-1.5-.1 0-.2.4-.2 1.1.1 1.6.4 1.7.7.4zm-.5-21.6l.3-.4-.2-.4c-.1-.1-.2-.1-.3 0s-.1.3-.1.5c.1.2.2.3.3.3z"/><path d="M155.2 247.5c-.2-.6-.5-.7-.9-.2v.9c0 .1.1.4.2.7.1.4.3.6.7.4.6 0 .7-.2.3-.7-.2-.3-.3-.6-.3-1.1zm1.2 2c-.2 0-.3.1-.4.2s-.1.5-.1 1c.1.5.1.8.3.8l.7-2h-.5zm-.7 30.3c.3 0 .5-.5.5-1.5 0-.6-.1-.9-.2-1.1-.1-.1-.3-.1-.5.2-.1.1-.2.6-.2 1.3 0 .3.1.6.2.9l.2.2zm-.2-24.7c0 .2.1.3.2.2s.2-.2.2-.3-.1-.2-.2-.2c-.1-.1-.2 0-.2.3zm-1.4-10.1c-.1-.1-.2 0-.3.1-.3.4-.4.7-.2.9.1.1.3 0 .5-.4.1-.3.1-.5 0-.6zm2.3 7.3c-.3-.1-.6-.1-.9.2-.1.4-.1.7-.1.9.1.1.3.1.6 0 .8-.3.9-.6.4-1.1zm-.2 24.2c0 .1.1.3.3.3.2.1.3 0 .3-.1-.1-.1-.2-.3-.3-.4-.3 0-.3.1-.3.2zm-4.6-42.5c1.4-.1 2.6-.4 3.6-.7h.9c0-.4-.1-.8-.2-1.1-2.2 0-3.7.1-4.6.4 0 .5.2 1 .3 1.4zm3.4-7.8c-.2.4-.2.7 0 .7v-.7zm1.8 32.3c.1-.2 0-.4-.2-.7-.2-.2-.3-.3-.4-.1-.2.1-.2.4.2.7.2.3.3.4.4.1zm-.3 2.3v-.4c-.1 0-.2.1-.2.2.1.3.1.4.2.2zm-3-14.1l.2.9c.2 0 .3-.1.3-.2.2-.1.3-.3.1-.4-.2-.3-.4-.3-.6-.3zm-9.3 29.4h.7v-.2c-.2-.2-.5-.1-.7.2zm.9-5.9c.1.1.2.2.3.2.1.3.3.4.5.4l.2.4c0 .1.1.3.3.4s.3.2.4.2c.3-.4.2-1-.5-1.7h-1.2zm-5.7 3.3c.2.1.3.4.3.7.1.3.3.4.6.3s.4-.2.4-.3c.1-.3.1-.6 0-.9-.2-.3-.5-.4-.9-.4-.3 0-.6.1-.9.2.2.1.3.2.5.4zm2.6-3.3h-.3c.1.2.2.2.3 0zm-4.1 4.6c-.2.3-.1.4.5.4l.3.2c.2-.3.3-.5.3-.7-.4-.4-.8-.4-1.1.1zm1.4-2.6c.1 0 .1-.1.3-.2-.1-.1-.3-.2-.5-.2-.1 0-.1.1 0 .2l.2.2zm9 .2c-.5.4-.5.7 0 .7.1 0 .2-.1.3-.4s.1-.5 0-.5c-.1-.2-.2-.1-.3.2zm2-52.1c.2 0 .3-.1.4-.4a.76.76 0 0 0-.2-.4c-.1-.1-.2-.1-.3 0s-.2.3-.2.5.1.3.3.3zm.4 11.1a.76.76 0 0 0 .2.4h.2c.2 0 .3-.1.3-.4-.1-.3-.2-.4-.3-.4-.3 0-.4.1-.4.4zm.7-15.9c-.1-.1-.2-.4-.2-.7 0-1.2-.5-1.5-1.4-.9-.3.1-.2.5.5 1.1.2.1.5.4.7.7 0 .1.1.2.3.1.3-.1.3-.2.1-.3zm.8 14.4a.55.55 0 0 0-.3.5c0 .2.1.4.3.4.2.1.4 0 .5-.3s.1-.5-.1-.7c-.1-.1-.3-.1-.4.1zm-3.4 28.8l-3.3-22c-.3-1.9-1.2-3-2.6-3.3l-2.4-.4c-1.4-.4-2.2.2-2.4 2l-3.4 22.5c-.1 1.2.2 2.3.9 3.3s1.6 1.5 2.5 1.5h8.4c.5 0 .9-.1 1.3-.4s.7-.7.9-1.3c.2-.8.2-1.4.1-1.9zm2.7 17.1c-.1-.2-.2-.3-.4-.3-.3.1-.5.4-.5.7v.2c.2 0 .5.1.7.2.2-.4.2-.6.2-.8zm-61.3-65.1a.76.76 0 0 0 .2.4.76.76 0 0 0 .2-.4c0-.1-.1-.2-.2-.2l-.2.2zm161.7 26.5c.2.1.4.2.5.3.7.7 1.1.4 1.1-.7v-.5c-.1-.4-.4-.7-.9-.7-.5-.1-.8.1-1 .5s-.2.6-.1.7c.2.3.3.4.4.4zm.8-.5c0 .1-.1.2-.3.3-.1-.1-.2-.2-.2-.3h.5zm-1.1 2.2c0-.1-.1-.2-.2-.2-.1-.2-.2-.2-.3 0-.1.1-.1.2 0 .3s.2.1.3 0c.1 0 .2 0 .2-.1zm73.8-8.1v-.9h.5l-.3-1.6c-.1.1-.2.1-.2.1-.1 0-.1-.2-.1-.4.1-.2.2-.3.3-.5l-.2-.3c0-.1-.1-.1-.2 0-.3 0-.5.1-.6.3 0 .3-.2.4-.6.3-.2 0-.4.1-.6.1-.2.2-.3.4-.2.6s.3.3.6.3c.5 0 .6.1.2.4-.2.1-.2.2 0 .4.2.1.3.3.2.4 0 .2.1.4.2.4.2.5.1.9-.5 1.2-.4.2-.6.4-.6.5.1.1.3.2.7.2.8 0 1.3-.5 1.4-1.5zm-2.1 9.7c.1.1.2.1.3.1s.2 0 .2-.1-.1-.2-.2-.2c0 .1-.2.1-.3.2zm2 .9c0 .1.1.2.2.3.2 0 .3-.1.2-.3s-.1-.3-.2-.2c-.2.1-.2.1-.2.2z"/><path d="M325.7 234.7c.1-.2 0-.3-.3-.3-.4 0-.5.1-.3.5.1.1.2.1.4.1.2-.1.2-.2.2-.3zm3.1 10.4c-.1.1-.1.3 0 .4.3.1.5.1.5 0 .1-.1.1-.2 0-.3-.3-.2-.4-.2-.5-.1zm-77.6-8.9c.1-.3 0-.4-.2-.4a.47.47 0 0 0-.6.1c-.2.2-.2.4-.2.6s.2.3.5.3c.2-.2.4-.4.5-.6zm8.5-54.6c-.5.1-.9.3-1.1.5-.1.1-.3.2-.5.3-.3.1-.6.3-.8.5l-1.9 1.2c-.2.1-.4.3-.6.5s-.3.2-.5.1c-.2-.2-.2-.4-.2-.7 0-.2-.1-.4-.2-.6-.2-.2-.3-.2-.5 0s-.3.2-.4.2c0-.4.1-.9.2-1.3v-1L251 188l.2.2c.2.7.3 1 .2 1.2h-.6c-.1.3-.2.7-.2 1l.3-.3c.2.1.2.3 0 .7-.2.2-.4.3-.5.2l-.6 2.8c.1.1.1.2.1.4-.1.2-.1.2-.2.2l-.3 1.6h.6c1 .1 1.5.3 1.8.5l.3.5h-.3c-.2 0-.4-.1-.5-.2-.1-.2-.4-.2-.8.2-.1.1-.3.2-.5.3-.1 0-.3-.1-.6-.2h-.4l-.3 1.6c.1-.1.2-.3.2-.5 0-.3.1-.5.2-.5s.3.2.4.5.1.6-.2.7c-.2.2-.4.2-.6.2a3.73 3.73 0 0 0-.2 1.2c.1-.1.3 0 .5.3l.2.5c.2.2.4.2.6-.1s.3-.3.4-.1c.4.6.5.9.2 1.2-.1.1-.2.3-.3.5s-.3.3-.5.2c-.2-.2-.6-.3-1.3-.2-.1.2-.2.4-.2.7.3 0 .5.1.5.2s-.2.2-.5.2l-.2 2.3c.5 0 .8.1.8.3s0 .4-.1.4c-.1.1-.3.1-.9.1l-.2 3.9c.1 0 .3-.1.5-.2s.7-.2 1.4-.2 1.3.1 1.6.3.4.5.3.9 0 .6.3.7c.6.2.9.1.8-.5-.1-.3-.1-.5.1-.5s.2-.2.1-.5c0-.4.2-.7.5-.7.1.1.3.1.6 0h.3l.3-3.9h-.2c0 .6-.3.8-1 .8h-.6l.5-.3c.4-.3.4-.7-.2-1-.3-.1-.5-.3-.4-.6s.2-.4.5-.2c.3.1.5.1.6-.1s.4-.2.8-.1c.1-.4.2-.9.2-1.5-.3.1-.7.2-1.1.2 0-.1.2-.2.5-.4s.6-.2.8-.2v-.7c-.1-.2-.3-.3-.5-.2-.3.1-.5.1-.5-.2-.1-.2-.1-.4 0-.7.1-.4.5-.5 1.1-.3 0-.4.1-.8.2-1.2h-.2c-.2-.1-.4-.1-.6.2s-.4.4-.5.2l.5-1.2c.3-.4.6-.6 1-.5l1.4-6.9c-.2-.1-.2-.3 0-.7l.6-2.3c-.4.1-.9.2-1.3.2-.6-.1-1.2 0-1.6.3-.5.2-.9.3-1 .2s-.2-.5-.2-1.2c.1-.7.1-1 0-1.2a3.08 3.08 0 0 1-.3-1.3l.2-.8c.1 0 .2.3.3.8 0 .4 0 .7.1.8s.3.2.7.2c.8.1 1.3-.2 1.3-.8 0-.2.2-.5.6-.7.4-.3.7-.4.9-.4a.55.55 0 0 0 .5-.3c.1-.2.6-.5 1.6-1 .3-.3.5-.8.7-1.4zm-8.9 13c-.4-.1-.5-.2-.3-.3.1-.1.3-.1.5 0 .4 0 .6.1.6.2 0 .4-.3.4-.8.1zm3.2-1.3c.1 0 .2.1.2.2s-.1.2-.2.2-.2-.1-.2-.2.1-.2.2-.2zm0 3.6c.5-.1.8.1.8.7 0 .3-.3.4-.8.2-.2-.1-.3-.2-.3-.4a.55.55 0 0 1 .3-.5zm-1 .7c0 .1-.1.2-.2.2s-.2-.1-.2-.2.1-.2.2-.2.2.1.2.2zm-.6-9.4c.1-.1.2-.1.3 0v.8c-.1.3-.2.5-.3.5-.1-.4-.1-.9 0-1.3zm-1 9.5l.2.3c-.3.1-.6.2-.8.2l-.3-.2c.5-.5.8-.6.9-.3zm-1.9 2.3c0-.1.3-.1 1-.1.7.1 1 .1 1 .2s-.3.2-1 .2c-.6.1-1 0-1-.3zm1 7.6c-.2-.1-.6 0-1.3.3-.6.2-1 .2-1-.2.1-.2.3-.3.5-.2.3 0 .6-.1 1-.2.7-.4 1.1-.4 1.1 0s-.1.4-.3.3zm.3-1.1c-.7-.4-.7-.7 0-.8.4-.1.7-.1.8 0s.2.3.2.5c-.2.4-.5.5-1 .3zm2.4-4.3c0 .3-.1.6-.2.7s-.3.1-.5-.1a.47.47 0 0 0-.6-.1c-.2.1-.2.3-.2.5.1.3-.1.6-.5.8-.4.1-.7.1-.8 0l.6-.3c.2 0 .3-.1.3-.2s-.1-.3-.3-.4c-.5 0-.5-.2 0-.5.1-.1.2-.3.3-.7 0-.2.1-.3.2-.3s.2.1.2.3c.1.2.2.3.5.2s.5-.1.6-.2c.1-.2.2-.3.2-.2l.2.5zm5.4 42.3v.3c.1-.1.1-.2 0-.3zm-1 .6c0 .1.1.2.2.2s.2-.1.2-.2-.1-.2-.2-.2c-.1.1-.2.1-.2.2zm61.9-14.8c.1 0 .3-.1.5-.3s.3-.4.2-.6c-.1-.1-.3 0-.5.1-.3.1-.5.3-.5.5s.1.3.3.3zm-68.2 11.1c-.2-.2-.3-.2-.3 0v.5h.3c.1-.3.1-.4 0-.5zm2.8-20.8v-1c-.2.1-.4.3-.5.7.2.1.3.2.5.3zm.5 12.7v-.8c0-.1-.2-.2-.7-.2s-.8.1-1 .2-.3 0-.3-.3a.47.47 0 0 0-.1-.6c-.2-.2-.2-.4-.2-.6s-.1-.4-.3-.6-.3-.3-.2-.5.2-.2.5-.2.4-.2.4-.5c0-.2 0-.4.1-.4.1-.1.2 0 .6.2.3.1.5.3.4.7-.1.3-.2.6-.6.7l-.5.3.5.3c.6.4 1.1.4 1.3 0a.55.55 0 0 1 .3-.5c.2-.1.3-.3.2-.5s-.2-.4-.3-.5c-.2-.1-.1-.2.1-.3.1-.1.2-.3.2-.5v-.3c0-.1-.1-.2-.2-.2-.2-.1-.2-.3.2-.5-.1-.7-.2-1.3-.2-2h-.2c-.2 0-.3.2-.4.5s-.2.4-.4.3c-.5-.3-1.1-.4-1.6-.2-.4.2-.7.2-1 .1-.2-.2-.4-.1-.6.2s-.5.3-.7.2c-.3-.2-.5-.2-.7 0s-.5.1-.8-.1h-.2v1c.1 0 .2.1.2.2.3 0 .5-.1.6-.3s.3-.2.5-.1c.2.2.3.4.3.6s.1.3.2.3c.5 0 .6.3.3.8-.4.4-.7.5-.8.2.2-.7.2-1 0-1-.3 0-.5.2-.6.5 0 .2-.1.3-.3.3.1 1.5.3 3 .6 4.4.2-.4.3-.8.3-1.2v-1.2h.6c.4 0 .7.2 1 .5.2.4.3.7.2.9s-.4.2-.8.1c-.4 0-.6.1-.6.2 0 .4.2.7.6.7a.55.55 0 0 1 .5.3c.1.2.2.4.3.5.2.1.3.1.3-.2.1-.1.2-.3.2-.5.1-.2.3-.4.5-.7.4-.2.7-.2.9 0s.1.5-.2.8c-.3.2-.3.4 0 .5.2 0 .5-.1.8-.2.3.1.7-.3.8-.8zm-1-5.7c.2-.2.3-.2.5 0s.1.2-.2.2c-.4.1-.5 0-.3-.2zm-1.1.6c0 .1 0 .2-.1.2s-.1-.1-.2-.2 0-.2.1-.2c.2 0 .2.1.2.2zm-1.4.6l.3-.2c0 .2.1.4.2.5-.1.1-.3 0-.5-.3zm.3-1.4c.1-.1.2-.2.3-.2.4 0 .6.1.6.2-.1.2-.2.2-.4.2-.2.1-.4 0-.5-.2zm-4-12.1v.2c.1.1.2.1.3 0l.2-.2c0-.1-.1-.1-.2-.2h-.3v.2zm0 2.7c.2-.1.4-.2.6-.2.8-.3 1.3-.5 1.3-.7-.1-.2-.2-.4-.3-.7l-.3-.3-.8.5c-.1.1-.3.2-.5.2v1.2z"/><path d="M251.7 219.3c-.1-.2-.3-.4-.6-.4-.3-.1-.4.1-.4.6l.3 1c.1.1.2.3.3.5 0 .2.1.4.2.7.1.1.2.2.3.2.2 0 .5-.2.9-.6s.6-.7.6-.9c0-.4-.2-.5-.6-.2-.2.1-.5-.1-1-.9zm1.4-1.1c-.2.1-.2.2 0 .3s.3.2.4.1.1-.2 0-.3-.2-.1-.4-.1zm.5-1.9c-.2 0-.2.1-.2.2s.1.2.2.2c.2 0 .2-.1.2-.2s-.1-.2-.2-.2zm37.2-45.5c-.3.4-.4.7-.3.8.2.4.5.3 1-.3.2-.3.5-.8 1-1.3-.1-.2-.3-.4-.5-.7l-1.2 1.5zm-.2 7.9c-.1.1-.1.1-.1.2.1.1.1.2.2.2s.2-.1.2-.2c.1-.1 0-.2-.1-.2h-.2z"/><circle cx="248.7" cy="214.4" r=".2"/><path d="M247.8 222.6c0 1.1.1 2.2.2 3.3.3 0 .6-.1.8-.2.2-.2.4-.2.5 0 .2.4.6.4 1.1-.2.3-.3.7-.5 1.1-.7.3-.1.5-.2.6-.2s.1.1.1.2c0 .4.4.5 1.3.2.2-.2.5-.3 1-.3h.2l-.2-2.6h-.2c-.3.1-.6.2-.9.2s-.5.1-.7.2c-.1.1-.3.1-.5-.2-.2-.2-.5-.3-.8-.3-.2 0-.4.2-.5.7-.1.4 0 .8.2 1 .3.2.3.4.2.5s-.3.2-.7.2-.6-.1-.7-.3-.3-.2-.6.2c-.3.3-.6.3-.8-.2-.1-.2 0-.5.2-.8.3-.3.4-.5.4-.6s.2 0 .5.2c.4.4.7.2 1-.7.1-.5.1-.9-.1-1.1s-.3-.1-.6.2c-.2.3-.4.3-.6.1-.2-.3-.3-.5-.2-.7.2-.1.3-.3.2-.5s-.2-.4-.4-.4c-.2-.1-.4-.1-.5 0s-.2.2-.2.3c-.1.2-.1.4-.1.7.1.6.1.8 0 .8s-.2-.1-.2-.3-.1-.3-.3-.2v.7c.6.3.7.6.2.8zm5.5 1c.2.2.2.4.1.5-.1.3-.2.3-.3 0-.1-.1-.2-.2-.2-.3.1-.4.2-.4.4-.2zm-1.6-.4c.1-.2.1-.2.2-.2s.1.1.1.2-.1.2-.2.2c-.2 0-.2-.1-.1-.2zm-2.8-11.3c-.2-.1-.5-.2-.8-.3-.2-.1-.4-.2-.5-.2-.1.6-.2 1.1-.2 1.6.2 0 .5-.1.7-.2.3-.2.5-.3.6-.5.2-.2.3-.3.2-.4zm74.6 9.9c-.2.1-.3.3-.3.4a.55.55 0 0 1-.3.5c-.4.2-.4.4.2.6.2.1.3.2.2.3-.1 0-.3.1-.6.1-.2.1-.3.2-.3.3 0 .3-.1.5-.2.6a.47.47 0 0 0-.1.6c.2.2.3.2.6-.1.2-.2.6-.4 1.1-.4.3 0 .6 0 1-.2.1-.1.2-.1.3 0 .1.2.2.3.3.3-.1-.6-.2-1.2-.2-2 0 .1-.1.1-.2.1-.3.3-.6.3-.8-.1-.1-.2.1-.6.6-1.2 0-.1 0-.1.1-.1l.2.2v-1.1l-.2-.3c-.3-.3-.4-.5-.2-.6.3-.2.3-.5 0-.8h-.7c-.2.2-.3.5-.2.9.1.5.1.8-.1.8s-.2-.1-.2-.2-.1-.2-.3-.2-.3.1-.2.3.2.4.4.5c.6.4.6.6.1.8zm-93.9 35.9c.2 0 .4.1.6.2 0 .1.1.2.2.1.2-.1.2-.2.2-.4s-.2-.4-.6-.5-.7-.1-1 0a.9.9 0 0 0 .6.6zm.1-1.7c-.3-.2-.5-.3-.6-.2s0 .2.1.5l1 .2c0-.1-.1-.3-.5-.5zm-2.3.1a.76.76 0 0 0 .2-.4c0-.1-.1-.2-.3-.2-.1 0-.2.1-.3.2s-.1.3-.1.5.1.2.5-.1zm.6 2.6h.3c-.1-.1-.2-.1-.3 0zm2.1 1c0 .1.1.1.3-.1s.3-.4.2-.5c-.3-.2-.4 0-.5.6zm-13.3-94.9c.1-.1.2-.2.2-.4.1-.2 0-.3-.1-.3-.5 0-.7.2-.5.6.2.1.3.2.4.1zm.4 115.9c0 .1 0 .2.1.2h.2l.3-.2c0-.1-.1-.2-.2-.2s-.3 0-.4.2zm3.5-107c1.3 1.3 2.3 2.9 3.2 4.7.5-.7.5-1.2-.2-1.6-.4-.3-.6-.5-.6-.8a5.23 5.23 0 0 1 .3-1.8c.1-.3.1-1 .1-2.2-.1-1.2 0-1.8.1-2 .2-.3.3-.5.3-.8-.1 0-.2-.1-.2-.2-.1-.1-.1-.2-.2-.3l-.2-.2c-.1-.1-.2-.2-.2-.3l-.3 1c-.2.4-.3.9-.3 1.4-.1.5-.3 1-.5 1.6-.4 1.1-.8 1.5-1.3 1.5zm-2 99.1c-.1.1 0 .2.1.2.2.4.3.3.3-.2 0-.1-.1-.2-.2-.2s-.2.1-.2.2zm6.9-20.8l-.2.8c.2-.1.3-.4.3-.8h-.1zm-.5 9.4c-.2 0-.3.1-.4.3s0 .4.1.5c.1.3.3.3.5 0 .4-.5.4-.8-.2-.8zm1.1 5.3c-.1.1-.2.3-.2.6.1.3.3.4.6.3s.4-.2.4-.5-.1-.4-.3-.5c-.2 0-.4 0-.5.1zm.8-88.8c.1-.3.2-.5.2-.6 0-.3-.2-.3-.5-.2s-.4.3-.3.6c.1.5.3.5.6.2z"/><path d="M321.4 226c-.2.1-.5.1-.7.1-.3 0-.5.1-.7.1-.1.2-.1.4.2.5.2.1.4.2.6.2.3 0 .5.1.5.1.2.1.5 0 .8-.3l.3-.3.5.3c.6.4 1 .4 1-.1 0-.2.1-.3.4-.2s.5 0 .6-.1.3-.2.5-.1l.2.2c-.1-.3-.2-.6-.2-.9-.1 0-.2.1-.3.1-.2.1-.5.1-.8-.1s-.6-.1-.8.1c-.3.1-.7.1-1.1.1-.7.1-1 .2-1 .3zm-.9-6.6c.1 0 .2 0 .2-.1h-.3c-.1 0 0 .1.1.1zm-.8 3c-.1.1-.1.2 0 .3s.2.1.4.1.3 0 .4-.1c0-.1-.1-.2-.3-.3-.3-.1-.4-.1-.5 0zm1.9-.9c.3.5.7.5 1.1 0 .3-.3.1-.5-.6-.8-.3 0-.5 0-.6.1 0 .1 0 .3.1.7z"/><path d="M321.9 219.2c.1.2.2.4.2.6a.55.55 0 0 0 .5.3c.2 0 .3-.1.3-.5.1-.1.1-.2 0-.5h-1zm-70.2-3c-.2.1-.4.1-.6 0-.2-.3-.5-.3-1 .2-.4.4-.4.7 0 .8.4.2.7.3.8.2.3-.1.6-.2 1-.2.3 0 .5 0 .6-.1s.2-.2.2-.4c-.1-.7-.4-.9-1-.5zm67.7 12.2c-.2-.1-.3 0-.3.1l.2.3.3.3c0-.1 0-.3-.2-.7zm1.2 4c0-.3-.1-.5-.3-.8l-.3-.4-.2.4c-.1.2-.1.4.2.6.3.5.5.5.6.2zm-96.3-55.9v.6c.2 0 .4-.1.5-.4a.76.76 0 0 0-.2-.4c-.1-.1-.2-.1-.3.2zm-.1 93.2c.4-.5.4-.8 0-.8-.2 0-.4.1-.6.3s-.2.4-.1.5c.1.2.4.2.7 0zm-2.3-99.5v.2c.1-.1.1-.3 0-.4v.2z"/><path d="M321.5 230c.3-.1.4-.4.4-.7s-.3-.7-.8-1.3c-.5-.5-.9-.8-1.1-.7-.1.1-.2.3-.2.5s.1.4.3.6.4.4.6.5.3.3.2.4c-.5 0-.6.2-.2.6a.78.78 0 0 0 .8.1zm-96.4-55.5c.2.5.5.2 1-1a.76.76 0 0 0 .2-.4c-.2-.4-.4-.7-.6-1-.3.4-.7.7-1.3.8-.5 0-.6.1-.2.4.1.1.3.2.5.2.3.1.5.3.5.4-.2.3-.2.5-.1.6zm68.4 3.2a.55.55 0 0 0-.3.5c0 .2.1.3.2.3s.3-.1.6-.2c.1-.2.1-.4 0-.6-.1-.1-.3-.1-.5 0zm8.6 40.2c0-.2-.1-.2-.2-.2s-.2.1-.2.2c0 .2.1.2.2.2s.2 0 .2-.2zm-8.1-43c-.4.1-.5.5-.3 1.2.2.4.5.4.8 0 .2-.1.2-.3.1-.7s-.4-.5-.6-.5zm4.4 31.7c0-.2-.1-.3-.3-.3s-.3.1-.3.3.1.3.3.3c.2.1.3-.1.3-.3zm4.2 7.6v-1.5-3.3c-.4.3-.5.6-.3.8 0 .1-.1.2-.2.2-.2.2-.2.7.2 1.3.2.7.1 1-.5 1.2-.2-.1-.5-.2-.8-.3-.3 0-.6.1-.7.3-.2.2-.5.4-.9.4-.4.1-.7.2-.7.6-.1.3 0 .7.2 1 .1.2.2.4.3.7 0 .1-.1.2-.2.2-.1.1-.2 0-.3-.1-.1-.2-.3-.3-.5-.2-.4 0-.5.3-.2.8 0 .1.1.2.3.3.3.2.5.4.5.5s-.2.2-.5.2c-.3.1-.6 0-.8-.1l-.6-.3c-.2-.1-.3-.2-.2-.4a.78.78 0 0 1 .4-.4c.3-.1.5-.4.5-.8.2-.5.2-.9-.2-1-.3-.1-.5-.3-.5-.5s.1-.4.4-.4c.3-.1.5-.4.7-.9.3-.8 1.1-1.1 2.2-1 .5.1.9.1 1 0 .2-.1.2-.3.1-.7-.1-.2-.6-.4-1.4-.4-.9-.1-1.3-.1-1.4-.2s.2-.4.9-1c.4-.4.8-.9 1.1-1.5.2-.3.2-.5-.2-.7-.2-.1-.4-.3-.5-.7-.2-.7-.5-.7-.8 0v.3c0 .4-.1.7-.2.7s-.2.2-.2.5-.1.5-.2.5c-.2 0-.3-.1-.4-.3s-.4-.3-.8-.3c-.7.1-1.3.6-1.6 1.3.1.3.2.7.2 1 .1.1.2.1.3 0s.2-.1.3 0c0 .1-.1.2-.2.2-.2.1-.4.2-.5.3v2.5c.1 0 .2.2.2.5s-.1.5-.2.5v1.5 3c.1.1.2.2.2.3s-.1.2-.2.2c0 .9-.1 1.8-.2 2.6h.2l.5-.5c.2-.5.5-1 .8-1.3s.5-.7.6-1c0-.1.1-.2.3-.2.3 0 .7-.4 1.2-1.1s.7-1.3.6-1.7-.1-.5.2-.3l.5.2c.2.2.4.3.5.2s.1-.3 0-.7a.47.47 0 0 1 .5-.5c.6 0 1-.2 1.2-.5zm-5-5.2c.1.1.3.2.5.6.2.3.3.5.2.5-.1.1-.2.2-.4.2-.2.1-.3.1-.3 0-.1-.1-.1-.3-.1-.7s0-.6.1-.6zm-.9 3.1c0-.2.1-.4.4-.7.3-.2.5-.3.7-.2.1.2.1.4 0 .7-.2 0-.4.1-.5.2-.4.4-.6.4-.6 0zm3.2 7.5l.2.2.2-.2h-.4zm0 3.2c.2.3.5.3 1 0 .2-.2.3-.4.2-.6s-.2-.2-.6-.2c-.3 0-.5.1-.6.2s-.1.3 0 .6z"/><circle cx="298.7" cy="223.9" r=".3"/><path d="M298.9 226.2c.2.2.5.3.8.2.1-.1.1-.2 0-.4s-.2-.2-.3-.2c-.6-.1-.7.1-.5.4zm-1.6-4.4c-.5.4-.6.9-.3 1.3.1 0 .2-.1.4-.2s.3-.4.5-.6.2-.4.2-.5c0-.5-.3-.5-.8 0zm1 3.4c-.1 0-.2.1-.2.2-.1.2 0 .4.1.6.2.1.4.1.5 0s.1-.3 0-.5c-.2-.2-.3-.3-.4-.3z"/><circle cx="299.7" cy="204.8" r=".2"/><path d="M298.7 195.6c-.1-.1-.3-.1-.5.2-.1.1-.2.3-.3.5.1.1.3.1.6-.2.3-.2.3-.4.2-.5zm.3-2.1c-.2.1-.3.1-.6 0-.1 0-.2.1-.3.2s-.1.2 0 .3.2.2.3.2c.2 0 .4-.1.6-.2.2-.2.3-.3.2-.4 0-.2-.1-.2-.2-.1zm-2.4.6c.3.7.6.7.9.2.1-.2.2-.4.2-.7a.47.47 0 0 0-.5-.5c-.7 0-.9.4-.6 1zm3.3.5h-.6c-.1 0-.1.1 0 .3.2.2.6.2 1.1 0-.1-.1-.2-.2-.5-.3zm-5.5-17.8c-.2.2-.2.3-.2.5s.1.2.3.2c.2-.1.4 0 .5.2.1.1.4.1 1-.2l.3-.3c0-.1-.1-.3-.3-.5-1-.1-1.5-.1-1.6.1zm3.7 20.6c0 .1.1.1.2.1.2-.1.2-.1.2-.2.1-.2.1-.3-.2-.3-.3-.1-.4.1-.2.4zm2.6 11.7c.2.4.4.4.6-.2.1-.3.3-.5.5-.7.4-.2.6-.4.6-.6-.1-.2-.3-.2-.7-.1-.2 0-.5.2-.7.7-.4.5-.5.8-.3.9zm-4.5-28c-.7.1-1 .4-.7 1s.7.5 1.4-.2c.3-.4.4-.7.3-.8-.2-.1-.5-.1-1 0zm-.7 8.5c.1-.2.1-.3 0-.4s-.2-.1-.4.1-.3.3-.2.4.2.2.3.2c.1-.1.2-.1.3-.3zm6.1 16.9c.1-.1.2-.3.2-.5-.2-.2-.4-.2-.6 0 0 .1.1.2.2.4 0 .1.1.2.2.1zm.8 0c-.1.1-.2.2-.2.3-.1.1-.1.2 0 .4s.2.2.4.2c0-.3-.1-.6-.2-.9zm-.6-4.6c0-.2-.1-.3-.3-.3s-.3.1-.3.3c0 .1.1.2.3.2.2-.1.3-.1.3-.2zm-.2-.9c.1.1.2.2.3.2h.2l-.2-.3c-.1 0-.2 0-.3.1zm-9.4-22.2c-.1.2-.2.4-.2.7.1.1.2.1.4.1.2-.1.3-.1.4-.2 0-.2-.1-.4-.2-.5-.1-.3-.3-.3-.4-.1zm1.6 13.3c0 .2.1.6.2 1h.2c.5.3.9.3 1.1-.2.1-.3.2-.5.3-.5s.1-.1.1-.4c-.1-.3-.5-.3-1.4-.1-.2.1-.4.1-.5.2zm-36.6-14c-.1.1-.1.1-.1.2.1.1.1.2.2.2s.2-.1.2-.2c.1-.1 0-.2-.1-.2 0-.1-.1-.1-.2 0zm.5-5.7c-.3.3-.4.6-.3.7.1.2.3.1.6-.3.4-.4.5-.6.3-.7-.1-.1-.3 0-.6.3zm1.1-.6c.2-.1.3-.2.5-.4s.2-.4.2-.7-.1-.5-.2-.5-.4.2-.6.6c-.3.4-.3.7-.2.9 0 .1.2.2.3.1zm-2.2 9.3c-.1.3 0 .6.1.7s.2.1.4-.1.3-.4.5-.6.2-.4.2-.5c-.2-.2-.4-.3-.6-.2 0 .1-.1.2-.3.2s-.3.2-.3.5zm.1-7.6c-.1.3-.2.6-.3.7.1.1.2.1.4-.1a.47.47 0 0 0 .1-.6h-.2z"/><path d="M297.4 185.5c.1.2.2.2.5.2s.5-.1.6-.2l-.8-.5h-.2c-.1.2-.2.3-.1.5zm-48.5 33.1c-.1.1-.1.2 0 .3.1.2.2.3.4.2s.3-.2.3-.3c.1-.2 0-.3-.2-.3-.3 0-.4 0-.5.1zm.9-7.4c-.4.3-.5.7-.1 1.2.4.4.7.5 1.1.1s.3-.8-.2-1.2c-.3-.3-.6-.3-.8-.1zm5 24.7c.4.1.8.3 1.1.7.3.3.5.7.5 1 0 .1.1.3.2.5-.1-.7-.3-1.4-.5-2.1 0-.1-.1-.2-.2-.3a.55.55 0 0 0-.5-.3.47.47 0 0 1-.5-.5c-.3-.5-.5-.4-.6.5-.1.2 0 .4.5.5zm-6.2-34.9c-.1 0-.2-.1-.2-.2 0 .6-.1.9-.2 1 .2 0 .3-.1.4-.2.1-.2.1-.3 0-.6zm5-21c.5-.2.8-.7.8-1.3l.3-.8c.2-.2.3-.5.2-.8l-1.3 2.9z"/><path d="M254.3 183.6c.2.2.4.3.6.2s.2-.2.2-.6.1-.5.2-.5c.2 0 .2-.1.2-.3 0-.7-.3-.7-.8-.2-.5.7-.6 1.2-.4 1.4zm-3.5 31.1c.1-.3.1-.5-.1-.6s-.3 0-.6.2-.4.4-.2.7c.6.3.9.2.9-.3zm48.9 16.6c.4 0 .8-.2 1.1-.5.1-.1.2-.2.3-.2l.3-1.5c-.2-.1-.3-.1-.3.2 0 .2-.2.3-.6.3s-.6-.1-.6-.2-.2-.1-.5-.1c-.3.1-.6 0-.9-.2s-.4-.3-.5-.2 0 .2.1.3c.3.1.3.4 0 .8-.2.2-.4.2-.6-.1s-.5-.4-.8-.4l-.5.2.6-.7c.4-.3 1-.5 1.6-.7.3 0 .6-.1 1-.3.1-.2.1-.4.1-.6-.1-.2-.2-.2-.4-.2s-.3-.1-.3-.3c-.2-.2-.5-.2-1 .2-.1.3-.3.5-.6.5a.47.47 0 0 1-.5-.5c-.1-.3 0-.5.2-.6.3-.1.5-.4.6-1.1 0-.5-.1-.8-.2-.9-.2-.1-.3.1-.6.4-.2.2-.5.3-.8.3-.2 0-.3.1-.3.2l-.2.3v.2c.1.1.1.2 0 .3-.3 3.1-.8 6-1.4 8.9 1.2 0 1.8-.1 1.8-.4s-.1-.4-.3-.4h-.2c-.1 0-.1-.1-.1-.2s.2-.2.5-.2.6.1.8.2.2.5-.2 1.1c-.3.6-.7.9-1 1-.4.1-.6.2-.7.4 0 .6-.3.9-1 1h-.2c-.1.6-.3 1.1-.5 1.6.3-.1.7-.2 1.1-.3.2-.2.5-.2.8.2.5.3.8.2.8-.5 0-.3.1-.6.3-.8s.3-.4.3-.7c.1-.4.2-.5.3-.3l.2.5c.1.8.4 1.2.8 1.2.1 0 .2-.2.4-.6s.2-.7.1-.9c-.3-.5-.1-1.2.6-2 .4-.4 1-.8 1.6-1.2.1 0 .2-.1.2-.2l.6-2.6-.2.2c-1.1.6-1.6 1.1-1.6 1.6-.1.3-.4.2-1-.5-.1-.3 0-.6.2-.8.5-.1.9-.2 1.3-.2zm-3.7-3.4c-.1 0-.2-.1-.4-.2s-.2-.3-.1-.4.2-.1.4 0 .2.2.2.3c.1.1 0 .3-.1.3zm1.3 5.1c-.4.4-.7.4-1 0-.2-.4-.1-.7.3-.8l.6-.2.2.7-.1.3zm-4.6-51.6c.1.1.4.1.8-.2.2-.1.4-.1.5.1s.3.2.5.2a.55.55 0 0 0 .5-.3c.1-.2 0-.5-.3-.8-.2-.2-.4-.4-.5-.7s-.5-.2-1.1.3c-.5.8-.6 1.2-.4 1.4zm.4-8.2c-.2.1-.2.3-.1.5 0 .1.1.2.2.2.2.1.3 0 .4-.2.1-.1.1-.2 0-.3-.2-.2-.4-.3-.5-.2z"/><circle cx="297.6" cy="182.8" r=".2"/><path d="M293.2 189.5c0-.1.1-.2.2-.2.2-.2.3-.4.3-.7a.47.47 0 0 1 .5-.5c.3 0 .6-.1.8-.3s.3-.4.2-.6-.3-.2-.5-.1c-.3.1-.5.1-.5 0s.1-.3.3-.5c.2-.3.5-.4.8-.3s.6.1.8-.1.3-.4.3-.7.1-.5.2-.8c.2-.3.1-.5-.1-.7s-.2-.3-.1-.5a.47.47 0 0 0-.1-.6c-.1-.2-.2-.3-.4-.3s-.3.1-.4.3c-.2.2-.4.3-.6.3-.7-.1-1.2-.1-1.4.2-.1.1-.1.3.1.5s.1.4-.1.7c-.1.2-.2.5-.3.8 0 .7-.2 1-.5 1-.1 0-.2.1-.3.2.1.1.2.3.2.5l.2.3c.2 0 .2.1 0 .3.1.7.3 1.3.4 1.8zm2-4.9c.5 0 .6.2.3.7-.5.7-.8.7-.8 0 .1-.5.2-.7.5-.7zm6.4 13.1l-.2-.8c-.4.6-.5.8-.2.8h.4zm-.8.7a.55.55 0 0 0-.3-.5c-.2-.1-.4-.1-.6 0-.1.1-.1.2 0 .3.3.4.2.9-.3 1.3-.3.2-.5.2-.6.1-.1-.2-.3-.1-.7.2s-.6.5-.6.7c0 .4-.2.4-.5 0-.2-.2.1-.7.8-1.5.3-.2.4-.4.3-.7-.2-.5-.6-.4-1.3.3-.7.6-1.2.6-1.3 0 0-.3-.1-.5-.3-.5-.3-.1-.4-.4-.2-1 .2-.3.2-.6-.2-.8h-.5l.3 2.6c.2.1.3.3.2.5l.3 2.3c.1-.4.2-.4.2.2 0 .1-.1.3-.2.5l.3 3.1a1.39 1.39 0 0 1 1.1-.2c.2.1.4 0 .6-.3s.3-.4.3-.2c0 .1 0 .2.1.2.1.1.1.1.2.1a.55.55 0 0 1 .5.3c0 .1.1.1.2 0s.1-.2 0-.2a.55.55 0 0 1-.3-.5c0-.2-.1-.3-.3-.3-.2-.1-.3-.2-.3-.3s.1-.2.3-.2.3-.1.3-.2-.1-.4-.2-.6c-.3-.2-.3-.6.2-1.2.4-.3.8-.7 1.3-1.2.4-.5.7-.7 1-.7a.47.47 0 0 0 .6-.1c.2-.2.3-.4.3-.6 0-.1.1-.3.2-.5v-.5h-.5c-.2.4-.4.3-.4.1zm.3 4.4c-.1-.2-.3-.2-.5.1s-.5.4-.8.4c-.1-.1-.3-.1-.5 0-.3.2-.2.4.5.5.2.1.4.2.5.2.4.1.8.3 1.1.5.4.3.7.3.8 0 .1-.1 0-.3-.3-.7-.3-.3-.6-.6-.8-1z"/><path d="M302.2 203.8v-.3c-.1.1-.1.2 0 .3zm0 18.6c-.2 0-.4.1-.5.2s-.2.3-.2.5v.5c-.1.1-.2.4-.3.8-.1.3-.4.5-.8.7-.1.2-.3.4-.5.7a.55.55 0 0 1 .5.3c.2.1.4.1.5 0 .3-.2.5-.1.6.3 0 .1-.1.2-.2.3 0 .2.1.4.2.5v.2c.4-1.7.6-3.3.7-5zm-82.3 47.5c-.1-.3-.3-.4-.6-.3s-.5.2-.6.5-.3.5-.6.7l-.8.5c-.4.3-.5.9-.2 1.8.1.5.4.4.8-.4a.9.9 0 0 1 .6-.6c.1.1.2.1.2 0 .1-.1.1-.3.1-.4 0-.4.3-.6.8-.6.1 0 .1.2 0 .6s-.1.6 0 .7.2-.1.3-.5c.2-.3.4-.5.6-.6.4-.1.6-.4.5-.8 0-.4.2-1 .6-1.8.5-.9 1-2.2 1.3-3.9.1-.7.3-1.2.6-1.8.3-.9.5-1.6.5-2.2-.1-.4-.2-.7-.3-.8-.1-.3-.2-.2-.3.2-.2 1.2-.5 1.9-.8 2.2-.2.3-.3.5-.3.8s-.1.5-.2.6l-.3 1.2c-.2.7-.5 1-.8 1-.5.1-.8.4-.8.8 0 .3.1.5.3.8a1.69 1.69 0 0 1 .3 1c0 .1-.1.3-.2.6 0 .1-.3.4-.7.7zm-40.3-46.1c.1.1.2.2.3.2s.2-.1.2-.2c.1-.1.1-.2.1-.3-.1-.1-.2-.1-.4 0-.3 0-.4.1-.2.3zm-.2-7.3v.6c.1.3.3.3.6 0 .3-.5.2-.8-.3-.8-.1 0-.2.1-.3.2zm.3-5.1v.4.4l.2-.2c.1-.1 0-.3-.2-.6z"/><path d="M179.7 219.6c-.1 0-.2.1-.2.4v.3c0 .1.1 0 .2-.1s.1-.3 0-.6zm1.1 1.1c.1-.2 0-.4-.1-.5s-.2-.1-.3 0-.2.3-.2.6c.1.1.2.2.3.2s.2-.1.3-.3zm-.5 6.2c-.1-.3-.1-.4-.2-.4s-.2.1-.2.4a.76.76 0 0 0 .2.4c.1 0 .2-.1.2-.4zm8.8-42c0 .3.5.1 1.4-.4l.6-.4-1.1-1.4c-.7-.9-1.2-1.3-1.3-1.2s0 .5.3 1c.6.8.7 1.4.2 2 0 .2-.1.3-.1.4z"/><ellipse cx="187" cy="184" rx=".2" ry=".3"/><path d="M192.5 173.3c0-.3-.2-.5-.5-.6-.2.1-.3.3-.2.4.3.4.6.5.7.2zm-4.5 3.4l-.3.8c.2.3.4.3.6 0 .1-.3 0-.6-.3-.8zm.2 1.9l-.2.2.2.2v-.4zm-8.8 39.7c.2.1.4.1.6-.2a.76.76 0 0 0-.2-.4c-.2-.1-.3-.1-.4 0v.6zm188.2-47.5a4.53 4.53 0 0 0 .8.1l-.5-.7c-.2-.3-.4-.3-.6-.2-.5.4-.4.7.3.8zm-4 .4c.2 0 .2-.1.2-.2 0-.2-.1-.2-.2-.3-.1 0-.2 0-.3.2-.2.2-.4.3-.6.1h-.2l.5.9v-.2c.2-.3.4-.5.6-.5zm-184.2 60.6c0 .3.2.4.5.4.2 0 .3-.2.3-.7s-.2-.8-.5-.9c-.1 0-.3-.1-.5-.2.1.3.2.7.2 1.4zM361 166.9c.2 0 .2-.1.2-.3s-.1-.3-.2-.4-.2-.1-.3 0-.1.3-.1.4c.2.2.3.3.4.3zm5.5 5.4c-.3 0-.5.1-.5.3 0 .5-.4 1.2-1.3 2.1-.1 0-.2.1-.2.2s.1.3.2.6c.3-.1.5-.2.6-.5.2-.3.5-.7 1-1.2l1.1-1.5c.3-.3.5-.5.5-.6-.3-.5-.6-.5-1 .1.1.3-.1.5-.4.5z"/><circle cx="359.2" cy="166.8" r=".2"/><path d="M380.9 155H359l3.3 1.7c4.7 2.7 8.4 6 11.1 9.8 2.7 3.9 4.3 7.8 4.9 11.8.1 1 .1 1.9-.2 2.6-.2.7-.6 1.3-1.2 1.8s-1.4.8-2.3.8h-9.1c-.3 0-.7 0-1-.1-.4-.1-.7-.2-1-.4s-.6-.3-1-.5c-.3-.1-.6-.3-.9-.6-.3-.2-.5-.5-.7-.8-.2-.2-.4-.5-.6-.9-.2-.3-.3-.7-.4-1-.7-2.7-2-5-3.8-6.9s-3.9-3-6.4-3.3c-4.6-.5-8 .7-10.4 3.5-2.3 2.8-3.5 6.2-3.3 10.1 0 2.9 1.3 5.7 4 8.3 2.7 2.7 5.6 4.8 8.9 6.3l11.2 5.3c4.1 2 7.1 3.7 8.8 5a21.91 21.91 0 0 1 6.1 7c1.4 2.5 2.3 5.1 2.9 7.9 7.4-17.6 12-36.6 13.2-56.6.3-5.9-4.4-10.8-10.2-10.8zM191.5 279.1l.3.4c.1 0 .2-.1.2-.2.1-.1.3-.2.5-.2s.4.1.6.3.4.1.6-.4.4-.7.6-.7.4-.1.5-.2a.78.78 0 0 0-.1-.8c-.2-.3-.3-.3-.6-.2-.2 0-.4-.1-.6-.3s-.4 0-.5.5c-.3.7-1.1 1-2.2 1 .4.3.6.5.7.8zm178.4-102.9c.5-.5.7-.8.6-.9s-.3-.1-.6.1c-.3.1-.5.2-.7.2-.2.1-.4.3-.5.5-.1.3-.1.4 0 .5.2.2.5.1 1.2-.4zm1.6-1.4c-.1-.1-.2-.2-.2-.5-.4.1-.6.3-.6.5s.1.3.3.3c.2-.1.4-.2.5-.3zm-4.4 2c-.2.1-.2.2-.1.4s.2.3.4.3.3 0 .4-.1c0-.2-.1-.3-.2-.5-.2-.1-.4-.1-.5-.1zm-2-8.3c-.2-.2-.4-.3-.6-.3l-.2.2.5.4c.8.7 1.2.8 1.1.3 0-.1-.3-.3-.8-.6zM188.5 185c0-.2-.2-.2-.6-.1-.7 0-1.1.3-1.1.8 0 .7.4.7 1.3 0 .2-.3.4-.5.4-.7zm-5.4 52.7c.3-.4.3-.6-.2-.6-.6 0-.7.3-.3.8.1.1.2.1.5-.2zm1.2-33.6c-.2 0-.4.3-.6.8s-.2.9-.2 1c.3.5.6.4 1-.4.2-.9.2-1.4-.2-1.4z"/><path d="M182.9 193.9v-.4c-.2-.3-.3-.3-.3 0-.1.1-.1.3-.1.4.1.2.2.2.4 0zm.3 15.5c.6 0 1-.1 1.2-.4s.2-.7.1-1.2c-.3-.7-.7-.8-1.3-.4a2.69 2.69 0 0 0-1 1.8c.1.2.4.2 1 .2zM185 187c.1-.1.2-.2.2-.5s-.1-.4-.3-.4c-.1-.1-.2-.1-.2.2-.1.3 0 .5.1.6 0 .1.1.1.2.1zm-2.2 41.5c.1.1.2.2.3.2s.3-.1.3-.2c.1-.1 0-.2-.1-.3s-.2-.1-.4 0c-.1 0-.1.1-.1.3zm1.4 17.8c0 .1.1.2.2.2.2-.1.3-.3.3-.4v-.2h-.2c-.1.2-.2.3-.3.4zm9.2 33.8c-.3.3-.4.5-.3.8.2.3.5.5.8.8v-.8c-.2-.7-.4-1-.5-.8zm-2.2-90.3c-2.2.3-3.2.7-3 1.2 0 .1.2.3.6.4.5.3.9.2 1.1-.2.3-.7.8-.9 1.6-.8.2.1.3.1.3-.2 0-.2-.2-.4-.6-.4zm-8 21.8c-.1 0-.2.1-.2.2-.1.1-.1.2-.1.3.1.1.1.1.2.1.2-.3.2-.5.1-.6z"/><circle cx="223.1" cy="277.3" r=".2"/><path d="M187.4 192.4v.2h.2c.2 0 .3-.1.3-.2-.2-.2-.3-.2-.5 0zm-.8 20.4c.1 0 .2-.1.3-.2v-.6-.2c-.3 0-.6.1-1 .2-.4.3-.6.7-.6 1.2-.1.4-.1.7.2 1 .2.1.3.3.3.6 0 .5.2.5.6-.2.2-.4.2-.8.1-1.1-.2-.4-.1-.6.1-.7zm-2.3 30.6c-.2 0-.4.2-.5.6-.1.3-.2.5-.2.6.2.4.5.4.8 0 .2-.1.3-.4.2-.7.1-.4-.1-.5-.3-.5zm2.1-50.4v-.8c-.2-.8-.4-1.2-.6-1.2-.1.1-.2.4-.2.8s.1.7.2 1c.3.6.5.7.6.2zm-.6 49.4c.1-.1.2-.3.2-.6 0-.4.1-.6.2-.6s.2-.1.3-.4c0-.4-.1-.8-.2-1.4l-.3 1.2c0 .4-.1.6-.3.6-.2.1-.3.3-.4.6s0 .5.1.8c.1.1.3.1.4-.2zm-.3 23.3c0-.1-.1-.2-.3-.2-.3 0-.3.2-.1.5.2.4.4.3.4-.3zm2.3-62.1l-.2.2.2.2v-.4z"/><path d="M187.4 209c.1-.8.3-1.5.5-2.2-.2 0-.4.1-.5.2-.2.1-.4.3-.6.4s-.3.4-.3.7c-.1.3 0 .6.1.7.2.3.4.4.8.2zm-1.8 23c.1.3.2.4.3.4v-.8h-.3c-.2.1-.2.3 0 .4zm-.1-12.6a1.1 1.1 0 0 0 0-.8c-.1-.8-.3-.8-.5 0-.1.3-.2.5-.4.7s-.2.4-.1.5c.2.7.5.6 1-.4zm-3 22.2c.2 0 .2-.1.2-.2s-.1-.2-.2-.2c-.2 0-.2.1-.2.2s0 .2.2.2zm3.1-25.1c-.1 0-.2.1-.2.2s.1.2.2.2.2-.1.2-.2-.1-.2-.2-.2zm133.1 13.6c0 .3.1.6.1.8.1-.2 0-.5-.1-.8zm-135.3 21.5c.3.3.5.3.6.2.1-.3 0-.5-.3-.8s-.5-.4-.6-.4c-.5.3-.4.6.3 1z"/><path d="M182.3 217.1c.3.3.6.2.8-.2.1-.3.1-.5 0-.6s-.3-.2-.6-.2c-.5.3-.6.6-.2 1zm7 51.4h.8.2c.1-.3.1-.5-.2-.6-.3-.4-.6-.2-.8.6zm18.2 17.5c-.2.3-.3.5-.4.8s-.2.5-.2.6c0 .5.3.3 1-.6.5-1 .6-1.7.3-2-.1.1-.2.3-.3.5s-.2.4-.4.7zm1.1-2c.1.1.2.2.3.2s.2-.1.2-.2-.1-.2-.2-.3c-.2-.1-.3-.1-.3 0-.2.1-.2.2 0 .3zm-2.8 2.5c-.1 0-.2.1-.2.2-.1.1-.1.3-.1.6h.8c0-.5-.1-.8-.5-.8zm-.9-3.5c0 .1.1.2.2.2.2 0 .3-.1.3-.2s-.1-.2-.2-.2c-.2 0-.3.1-.3.2z"/><path d="M205.7 284.4c0-.1-.1-.2-.2-.3s-.2-.1-.2 0c-.1.1-.1.2 0 .3s.1.2.2.2.2-.1.2-.2zm1.9-7.5h-1.1-1.1a4.74 4.74 0 0 1 1 1c.2.3.5.5 1 .6.2 0 .4.1.6.4.1.1.3.3.5.4.3-.3.2-.7-.3-1.4-.3-.3-.5-.6-.6-1zm3-.8v.2c0 .3-.2.5-.5.6-.3 0-.5.2-.6.6s0 .7.3 1c.4.5.8.6 1.1.2.3-.5.8-1.6 1.4-3.3-.5.2-1 .5-1.7.7zm-6.6 10.4c.2 0 .2-.1.2-.4s.1-.5.3-.8.3-.5.2-.8-.3-.4-.6-.4c-.2 0-.3.4-.3 1.2s.1 1.2.2 1.2zm-1.8-.7c0 .3-.1.5-.2.8.4.1.8.2 1.3.2-.1-.1-.2-.3-.2-.6-.3-.6-.6-.7-.9-.4zm-1.3-3.6c-.3 0-.5.1-.6.3s.1.4.4.7c.2.1.3.3.3.6s.1.5.3.6c.1 0 .2.1.3.2.2-.1.4-.3.5-.4.3-.8.3-1.4 0-2-.2.1-.3.3-.3.6a.76.76 0 0 1-.2.4c-.1 0-.2 0-.2-.1v-.3c.1-.4-.1-.6-.5-.6zm2.4 1.2c-.1.1-.1.3 0 .4s.2.1.3 0 .2-.2.2-.3-.1-.2-.2-.3-.2-.1-.3.2zm-3.9.4c-.1.3 0 .5.1.6.3.5.5.5.6 0 .1-.1.1-.3 0-.6s-.2-.4-.4-.4-.3.1-.3.4z"/><path d="M200 276.4c.5.7.8.8 1 .3.1-.4.3-.7.5-.8-.4-.3-.8-.5-1.1-.6-.7.1-.8.4-.4 1.1z"/><ellipse cx="294.3" cy="179.1" rx=".2" ry=".3"/><path d="M215.3 283c-.1.1-.1.3 0 .4s.1.2.2.3.2 0 .2-.3-.1-.4-.2-.5c0-.1-.1 0-.2.1zm.9-5.5c.1.3.2.3.3.2.2-.3.3-.5.2-.6s-.2-.2-.4-.2c-.5 0-.5.2-.1.6zm7.3-2.1c.3-.4.2-.6-.3-.6-.3 0-.5.1-.6.2s0 .3.2.4c.4.1.6.1.7 0zm-.6-15.2l-.2.4c.1 0 .2 0 .2-.1.1 0 .1-.1 0-.3zm-7 14.2c0 .3-.1.5-.2.7-.2.2-.2.4-.2.5.1.1.2.2.5.2s.5-.1.6-.4c.1-.1.1-.4 0-.8-.5-.8-.7-.9-.7-.2zm-5 9.8c-.4.4-.5.8-.2 1.2h.5c.3 0 .4-.2.3-.6 0-.8-.2-1-.6-.6zm-1.8-2.2c-.1.4 0 .7.1 1 .3.3.5.1.6-.4l.3-1.2c.2-.8.2-1.2 0-1.4-.2.1-.3.3-.3.6-.1.3-.2.5-.4.6-.1.2-.2.4-.3.8zm3.9-2.8c.1.2.3.2.5.1.5-.4.6-.7.3-.8a.47.47 0 0 0-.6.1c-.2.2-.3.4-.2.6zm1.1-1.5c.3-.8.3-1.2-.2-1.2-.1 0-.2.2-.4.6s-.2.7-.1.8c.3.5.5.5.7-.2zm-1.4 5.1c0 .4.1.6.3.6.3 0 .4-.3.2-.8-.2-.2-.4-.2-.5.2zm.8-2.1c-.1.1-.1.3-.1.6.1.3.2.3.4 0s.2-.5.1-.6c-.2-.2-.3-.2-.4 0zm109.2-44.8c0-.2-.1-.3-.2-.5-.2 0-.4.2-.5.6.1.2.2.3.4.2.2 0 .3-.1.3-.3zm-4-13.7c-.1-.1-.3-.1-.6 0v.6c.2 0 .4 0 .5-.1.2-.2.2-.4.1-.5zm4.2 12.4c.1 0 .1-.1.1-.2s-.1-.1-.3-.1l-.2.1c0 .2.1.3.2.3s.2 0 .2-.1zm-.8 4.9c.2-.1.3-.2.3-.5-.1-.2-.3-.2-.5-.1h-.3c.1.2.3.5.5.8v-.2zm-.7-4.1c.2 0 .3-.1.3-.3 0-.1-.1-.2-.3-.3-.2 0-.3.1-.3.4s.1.3.3.2zm-.3-2.5c.1.1.3.2.5.2.2.1.4.1.6 0 .2 0 .2-.1.2-.2 0-.2-.2-.5-.5-.8s-.6-.5-.8-.5c-.3 0-.4.3-.2.9l.2.4zm2.1-2.9c0-.2-.1-.3-.2-.4-.2 0-.3 0-.6.1-.1.1-.1.3 0 .5s.3.3.5.2c.2 0 .3-.2.3-.4zm-142.5-.6c-.1-.3-.3-.4-.5-.3s-.3.2-.3.5.1.4.3.4c.5 0 .7-.2.5-.6zm145.8 2.4c-.1-.2-.2-.5-.3-.8-.3 0-.5.1-.5.2 0 .4.3.6.8.6zm1.1 7.1l-.3.3c0 .2.1.2.2.1s.3-.3.1-.4z"/><path d="M327.6 236.5c-.1-.1-.2-.1-.3 0 0 .1 0 .2.1.3s.1.1.2 0c.2-.1.2-.2 0-.3zm-.8-1.8a.55.55 0 0 0 .5-.3l-.3-.6c-.3 0-.5.3-.6.8 0 0 .1.1.4.1zm-124.3 44.8c-.2.1-.4 0-.6-.4-.2-.3-.4-.4-.6-.3s-.2.3-.2.7c0 .3.1.4.4.5s.4.3.4.7.2.7.5 1c.5.4.8.3.8-.2.1-.3 0-.5-.2-.6-.3-.1-.3-.3-.1-.6-.1-.6-.2-.8-.4-.8zm124.8-33.4c.1-.1.1-.2 0-.3s-.3-.1-.5.1c-.2.1-.3.3-.2.4.2.1.4.1.7-.2zm-129 31.3c.3-.1.5-.2.7-.5.1-.1.2-.3.2-.5s-.2-.2-.5-.1c-.3 0-.6.1-.8.4s-.3.5-.2.6.3.2.6.1zm-1.9-.8c-.1.2-.2.3-.3.3-.5 0-.7.2-.5.6.1.1.3.2.6.2s.6-.1.7-.3.2-.4.2-.7a1.38 1.38 0 0 0-.4-.3s-.1 0-.3.2zm.9 3.4c-.1.1-.1.2-.1.3s-.1.1-.3 0c-.1-.3-.3-.3-.5-.2-.1 0-.2.1-.2.4s.1.5.2.6c.3.5.6.5.8 0 .1-.3.2-.4.4-.5s.2-.2.2-.4-.1-.3-.3-.3c0 0-.1 0-.2.1zm-1.7 2.6c0 .1.1.2.2.2s.2-.1.2-.2c.1-.1 0-.2-.2-.2s-.2.1-.2.2zm1.6-8.8c-.1-.1-.2-.3-.3-.4 0 .1.1.3.2.5s.1.2.1-.1zm-15.7-25.1c.2 0 .2-.1.2-.2.1-.1.1-.3 0-.4s-.3-.1-.5 0-.3.3-.2.4c.3.1.4.2.5.2zm.1-34.8c.1-.1.2-.2.2-.3s-.1-.2-.2-.3-.2-.1-.3.2c-.1.1-.1.3 0 .4.1.2.2.2.3 0zm0 11.2c-.1-.3-.3-.5-.5-.6-.2-.3-.4-.3-.5-.2s-.1.4.2.8c.6.7.8.7.8 0z"/><path d="M181.2 226.3c-.2 0-.2.1-.2.4s.1.4.2.4.2-.1.2-.4c.1-.3 0-.4-.2-.4zm.1 16.3c.2 0 .3-.1.3-.4 0-.1-.1-.3-.3-.4-.2 0-.3.2-.3.5s.1.4.3.3zm-.2-10.4c.2 0 .3-.1.3-.4-.2-.1-.4-.1-.5 0 0 .3 0 .4.2.4z"/></g></svg>